<svg width="285" height="284" viewBox="0 0 285 284" fill="none" xmlns="http://www.w3.org/2000/svg">
<g opacity="0.2" clip-path="url(#clip0_2320_3682)">
<path d="M142.788 0C64.2345 0 0.690186 63.5443 0.690186 142.097C0.690186 220.456 64.2345 284.195 142.788 284.195C221.146 284.195 284.885 220.651 284.885 142.097C284.69 63.5443 221.146 0 142.788 0ZM142.788 275.034C69.3024 275.034 9.85148 215.583 9.85148 142.097C9.85148 68.6122 69.3024 9.16129 142.788 9.16129C216.273 9.16129 275.724 68.6122 275.724 142.097C275.724 215.388 216.078 275.034 142.788 275.034Z" fill="white"/>
<path d="M142.789 30.6025C81.3886 30.6025 31.4888 80.5023 31.4888 141.902C31.4888 203.303 81.3886 253.202 142.789 253.202C204.189 253.202 254.089 203.498 254.089 142.097C254.089 80.5023 204.189 30.6025 142.789 30.6025ZM142.789 236.244C90.7448 236.244 48.4469 193.946 48.4469 141.902C48.4469 89.8585 90.7448 47.5607 142.789 47.5607C194.833 47.5607 237.13 89.8585 237.13 141.902C237.13 193.946 194.833 236.244 142.789 236.244Z" fill="white"/>
<path d="M142.788 79.5273C108.287 79.5273 80.2185 107.596 80.2185 142.097C80.2185 176.598 108.092 204.667 142.788 204.667C177.289 204.667 205.358 176.598 205.358 142.097C205.163 107.596 177.289 79.5273 142.788 79.5273ZM142.788 175.623C124.271 175.623 109.262 160.614 109.262 142.097C109.262 123.579 124.271 108.571 142.788 108.571C161.306 108.571 176.315 123.579 176.315 142.097C176.315 160.614 161.306 175.623 142.788 175.623Z" fill="white"/>
</g>
<defs>
<clipPath id="clip0_2320_3682">
<rect width="284" height="284" fill="white" transform="translate(0.690186)"/>
</clipPath>
</defs>
</svg>
