<svg width="236" height="236" viewBox="0 0 236 236" fill="none" xmlns="http://www.w3.org/2000/svg">
<g opacity="0.2">
<path d="M118.419 0C53.4193 0 0.838623 52.5807 0.838623 117.581C0.838623 182.419 53.4193 235.161 118.419 235.161C183.258 235.161 236 182.581 236 117.581C235.839 52.5807 183.258 0 118.419 0ZM118.419 227.581C57.6128 227.581 8.41927 178.387 8.41927 117.581C8.41927 56.7742 57.6128 7.58065 118.419 7.58065C179.226 7.58065 228.419 56.7742 228.419 117.581C228.419 178.226 179.064 227.581 118.419 227.581Z" fill="white"/>
<path d="M118.42 25.3223C67.6138 25.3223 26.3235 66.6126 26.3235 117.419C26.3235 168.225 67.6138 209.516 118.42 209.516C169.227 209.516 210.517 168.387 210.517 117.58C210.517 66.6126 169.227 25.3223 118.42 25.3223ZM118.42 195.484C75.3557 195.484 40.3557 160.484 40.3557 117.419C40.3557 74.3545 75.3557 39.3545 118.42 39.3545C161.485 39.3545 196.485 74.3545 196.485 117.419C196.485 160.484 161.485 195.484 118.42 195.484Z" fill="white"/>
</g>
</svg>
