<svg width="135" height="139" viewBox="0 0 135 139" fill="none" xmlns="http://www.w3.org/2000/svg">
<g opacity="0.2">
<path d="M67.5009 0.0214785C104.565 0.0214818 134.547 31.0306 134.547 69.3639C134.547 107.602 104.565 138.706 67.5009 138.706C30.529 138.706 0.454886 107.697 0.454889 69.3639C0.546857 31.0306 30.529 0.0214753 67.5009 0.0214785ZM67.5009 134.236C102.173 134.236 130.224 105.224 130.224 69.3639C130.224 33.5037 102.174 4.49212 67.5009 4.49212C32.8283 4.49211 4.77746 33.5037 4.77746 69.3639C4.77746 105.129 32.9202 134.236 67.5009 134.236Z" fill="white"/>
<path d="M67.5004 14.9551C96.4709 14.9551 120.015 39.3058 120.015 69.2686C120.015 99.2313 96.4709 123.582 67.5004 123.582C38.5299 123.582 14.9856 99.3265 14.9856 69.3637C14.9856 39.3058 38.5299 14.9551 67.5004 14.9551ZM67.5004 115.307C92.0563 115.307 112.014 94.6656 112.014 69.2686C112.014 43.8715 92.0563 23.2305 67.5004 23.2305C42.9445 23.2305 22.987 43.8715 22.987 69.2686C22.987 94.6656 42.9444 115.307 67.5004 115.307Z" fill="white"/>
</g>
</svg>
