<svg width="144" height="106" viewBox="0 0 144 106" fill="none" xmlns="http://www.w3.org/2000/svg">
<path d="M4.79647 31.5301C4.79647 32.6946 3.92215 33.568 2.75639 33.568C1.59063 33.568 0.716309 32.6946 0.716309 31.5301C0.716309 30.3656 1.59063 29.4922 2.75639 29.4922C3.92215 29.4922 4.79647 30.4626 4.79647 31.5301Z" fill="#FFCF2D"/>
<path d="M22.1856 31.5301C22.1856 32.6946 21.3113 33.568 20.1455 33.568C18.9798 33.568 18.1055 32.6946 18.1055 31.5301C18.1055 30.3656 18.9798 29.4922 20.1455 29.4922C21.2142 29.4922 22.1856 30.4626 22.1856 31.5301Z" fill="#FFCF2D"/>
<path d="M39.4779 31.5301C39.4779 32.6946 38.6035 33.568 37.4378 33.568C36.272 33.568 35.3977 32.6946 35.3977 31.5301C35.3977 30.3656 36.272 29.4922 37.4378 29.4922C38.6035 29.4922 39.4779 30.4626 39.4779 31.5301Z" fill="#FFCF2D"/>
<path d="M56.8673 31.5301C56.8673 32.6946 55.993 33.568 54.8272 33.568C53.6614 33.568 52.7871 32.6946 52.7871 31.5301C52.7871 30.3656 53.6614 29.4922 54.8272 29.4922C55.993 29.4922 56.8673 30.4626 56.8673 31.5301Z" fill="#FFCF2D"/>
<path d="M74.2564 31.5301C74.2564 32.6946 73.3821 33.568 72.2163 33.568C71.0506 33.568 70.1763 32.6946 70.1763 31.5301C70.1763 30.3656 71.0506 29.4922 72.2163 29.4922C73.285 29.4922 74.2564 30.4626 74.2564 31.5301Z" fill="#FFCF2D"/>
<path d="M91.6456 31.5301C91.6456 32.6946 90.7713 33.568 89.6055 33.568C88.4397 33.568 87.5654 32.6946 87.5654 31.5301C87.5654 30.3656 88.4397 29.4922 89.6055 29.4922C90.7713 29.4922 91.6456 30.4626 91.6456 31.5301Z" fill="#FFCF2D"/>
<path d="M108.938 31.5301C108.938 32.6946 108.064 33.568 106.898 33.568C105.732 33.568 104.858 32.6946 104.858 31.5301C104.858 30.3656 105.732 29.4922 106.898 29.4922C108.064 29.4922 108.938 30.4626 108.938 31.5301Z" fill="#FFCF2D"/>
<path d="M126.327 31.5301C126.327 32.6946 125.453 33.568 124.287 33.568C123.121 33.568 122.247 32.6946 122.247 31.5301C122.247 30.3656 123.121 29.4922 124.287 29.4922C125.453 29.4922 126.327 30.4626 126.327 31.5301Z" fill="#FFCF2D"/>
<path d="M143.716 31.5301C143.716 32.6946 142.842 33.568 141.676 33.568C140.511 33.568 139.636 32.6946 139.636 31.5301C139.636 30.3656 140.511 29.4922 141.676 29.4922C142.745 29.4922 143.716 30.4626 143.716 31.5301Z" fill="#FFCF2D"/>
<path d="M4.79647 45.99C4.79647 47.1546 3.92215 48.0279 2.75639 48.0279C1.59063 48.0279 0.716309 47.1546 0.716309 45.99C0.716309 44.8255 1.59063 43.9521 2.75639 43.9521C3.92215 43.9521 4.79647 44.8255 4.79647 45.99Z" fill="#FFCF2D"/>
<path d="M22.1856 45.99C22.1856 47.1546 21.3113 48.0279 20.1455 48.0279C18.9798 48.0279 18.1055 47.1546 18.1055 45.99C18.1055 44.8255 18.9798 43.9521 20.1455 43.9521C21.2142 43.9521 22.1856 44.8255 22.1856 45.99Z" fill="#FFCF2D"/>
<path d="M39.4779 45.99C39.4779 47.1546 38.6035 48.0279 37.4378 48.0279C36.272 48.0279 35.3977 47.1546 35.3977 45.99C35.3977 44.8255 36.272 43.9521 37.4378 43.9521C38.6035 43.9521 39.4779 44.8255 39.4779 45.99Z" fill="#FFCF2D"/>
<path d="M56.8673 45.99C56.8673 47.1546 55.993 48.0279 54.8272 48.0279C53.6614 48.0279 52.7871 47.1546 52.7871 45.99C52.7871 44.8255 53.6614 43.9521 54.8272 43.9521C55.993 43.9521 56.8673 44.8255 56.8673 45.99Z" fill="#FFCF2D"/>
<path d="M74.2564 45.99C74.2564 47.1546 73.3821 48.0279 72.2163 48.0279C71.0506 48.0279 70.1763 47.1546 70.1763 45.99C70.1763 44.8255 71.0506 43.9521 72.2163 43.9521C73.285 43.9521 74.2564 44.8255 74.2564 45.99Z" fill="#FFCF2D"/>
<path d="M91.6456 45.99C91.6456 47.1546 90.7713 48.0279 89.6055 48.0279C88.4397 48.0279 87.5654 47.1546 87.5654 45.99C87.5654 44.8255 88.4397 43.9521 89.6055 43.9521C90.7713 43.9521 91.6456 44.8255 91.6456 45.99Z" fill="#FFCF2D"/>
<path d="M108.938 45.99C108.938 47.1546 108.064 48.0279 106.898 48.0279C105.732 48.0279 104.858 47.1546 104.858 45.99C104.858 44.8255 105.732 43.9521 106.898 43.9521C108.064 43.9521 108.938 44.8255 108.938 45.99Z" fill="#FFCF2D"/>
<path d="M126.327 45.99C126.327 47.1546 125.453 48.0279 124.287 48.0279C123.121 48.0279 122.247 47.1546 122.247 45.99C122.247 44.8255 123.121 43.9521 124.287 43.9521C125.453 43.9521 126.327 44.8255 126.327 45.99Z" fill="#FFCF2D"/>
<path d="M143.716 45.99C143.716 47.1546 142.842 48.0279 141.676 48.0279C140.511 48.0279 139.636 47.1546 139.636 45.99C139.636 44.8255 140.511 43.9521 141.676 43.9521C142.745 43.9521 143.716 44.8255 143.716 45.99Z" fill="#FFCF2D"/>
<path d="M4.79647 2.70879C4.79647 3.8733 3.92215 4.74668 2.75639 4.74668C1.59063 4.74668 0.716309 3.8733 0.716309 2.70879C0.716309 1.54428 1.59063 0.670898 2.75639 0.670898C3.92215 0.670898 4.79647 1.54428 4.79647 2.70879Z" fill="#FFCF2D"/>
<path d="M22.1856 2.70879C22.1856 3.8733 21.3113 4.74668 20.1455 4.74668C18.9798 4.74668 18.1055 3.8733 18.1055 2.70879C18.1055 1.54428 18.9798 0.670898 20.1455 0.670898C21.2142 0.670898 22.1856 1.54428 22.1856 2.70879Z" fill="#FFCF2D"/>
<path d="M39.4779 2.70879C39.4779 3.8733 38.6035 4.74668 37.4378 4.74668C36.272 4.74668 35.3977 3.8733 35.3977 2.70879C35.3977 1.54428 36.3692 0.670898 37.4378 0.670898C38.6035 0.670898 39.4779 1.54428 39.4779 2.70879Z" fill="#FFCF2D"/>
<path d="M56.8673 2.70879C56.8673 3.8733 55.993 4.74668 54.8272 4.74668C53.6614 4.74668 52.7871 3.8733 52.7871 2.70879C52.7871 1.54428 53.7586 0.670898 54.8272 0.670898C55.8958 0.670898 56.8673 1.54428 56.8673 2.70879Z" fill="#FFCF2D"/>
<path d="M74.2564 2.70879C74.2564 3.8733 73.3821 4.74668 72.2163 4.74668C71.0506 4.74668 70.1763 3.8733 70.1763 2.70879C70.1763 1.54428 71.0506 0.670898 72.2163 0.670898C73.285 0.670898 74.2564 1.54428 74.2564 2.70879Z" fill="#FFCF2D"/>
<path d="M91.6456 2.70879C91.6456 3.8733 90.7713 4.74668 89.6055 4.74668C88.4397 4.74668 87.5654 3.8733 87.5654 2.70879C87.5654 1.54428 88.4397 0.670898 89.6055 0.670898C90.7713 0.670898 91.6456 1.54428 91.6456 2.70879Z" fill="#FFCF2D"/>
<path d="M108.938 2.70879C108.938 3.8733 108.064 4.74668 106.898 4.74668C105.732 4.74668 104.858 3.8733 104.858 2.70879C104.858 1.54428 105.732 0.670898 106.898 0.670898C108.064 0.670898 108.938 1.54428 108.938 2.70879Z" fill="#FFCF2D"/>
<path d="M126.327 2.70879C126.327 3.8733 125.453 4.74668 124.287 4.74668C123.121 4.74668 122.247 3.8733 122.247 2.70879C122.247 1.54428 123.121 0.670898 124.287 0.670898C125.453 0.670898 126.327 1.54428 126.327 2.70879Z" fill="#FFCF2D"/>
<path d="M143.716 2.70879C143.716 3.8733 142.842 4.74668 141.676 4.74668C140.511 4.74668 139.636 3.8733 139.636 2.70879C139.636 1.54428 140.511 0.670898 141.676 0.670898C142.745 0.670898 143.716 1.54428 143.716 2.70879Z" fill="#FFCF2D"/>
<path d="M4.79647 17.1678C4.79647 18.3323 3.92215 19.2057 2.75639 19.2057C1.59063 19.2057 0.716309 18.2352 0.716309 17.1678C0.716309 16.0033 1.59063 15.1299 2.75639 15.1299C3.92215 15.1299 4.79647 16.0033 4.79647 17.1678Z" fill="#FFCF2D"/>
<path d="M22.1856 17.1678C22.1856 18.3323 21.3113 19.2057 20.1455 19.2057C18.9798 19.2057 18.1055 18.3323 18.1055 17.1678C18.1055 16.0033 18.9798 15.1299 20.1455 15.1299C21.2142 15.1299 22.1856 16.0033 22.1856 17.1678Z" fill="#FFCF2D"/>
<path d="M39.4779 17.1678C39.4779 18.3323 38.6035 19.2057 37.4378 19.2057C36.272 19.2057 35.3977 18.3323 35.3977 17.1678C35.3977 16.0033 36.272 15.1299 37.4378 15.1299C38.6035 15.1299 39.4779 16.0033 39.4779 17.1678Z" fill="#FFCF2D"/>
<path d="M56.8673 17.1678C56.8673 18.3323 55.993 19.2057 54.8272 19.2057C53.6614 19.2057 52.7871 18.3323 52.7871 17.1678C52.7871 16.0033 53.6614 15.1299 54.8272 15.1299C55.993 15.1299 56.8673 16.0033 56.8673 17.1678Z" fill="#FFCF2D"/>
<path d="M74.2564 17.1678C74.2564 18.3323 73.3821 19.2057 72.2163 19.2057C71.0506 19.2057 70.1763 18.3323 70.1763 17.1678C70.1763 16.0033 71.0506 15.1299 72.2163 15.1299C73.285 15.1299 74.2564 16.0033 74.2564 17.1678Z" fill="#FFCF2D"/>
<path d="M91.6456 17.1678C91.6456 18.3323 90.7713 19.2057 89.6055 19.2057C88.4397 19.2057 87.5654 18.3323 87.5654 17.1678C87.5654 16.0033 88.4397 15.1299 89.6055 15.1299C90.7713 15.1299 91.6456 16.0033 91.6456 17.1678Z" fill="#FFCF2D"/>
<path d="M108.938 17.1678C108.938 18.3323 108.064 19.2057 106.898 19.2057C105.732 19.2057 104.858 18.3323 104.858 17.1678C104.858 16.0033 105.732 15.1299 106.898 15.1299C108.064 15.1299 108.938 16.0033 108.938 17.1678Z" fill="#FFCF2D"/>
<path d="M126.327 17.1678C126.327 18.3323 125.453 19.2057 124.287 19.2057C123.121 19.2057 122.247 18.3323 122.247 17.1678C122.247 16.0033 123.121 15.1299 124.287 15.1299C125.453 15.1299 126.327 16.0033 126.327 17.1678Z" fill="#FFCF2D"/>
<path d="M143.716 17.1678C143.716 18.3323 142.842 19.2057 141.676 19.2057C140.511 19.2057 139.636 18.3323 139.636 17.1678C139.636 16.0033 140.511 15.1299 141.676 15.1299C142.745 15.1299 143.716 16.0033 143.716 17.1678Z" fill="#FFCF2D"/>
<path d="M4.79647 60.3523C4.79647 61.5169 3.92215 62.3902 2.75639 62.3902C1.59063 62.3902 0.716309 61.5169 0.716309 60.3523C0.716309 59.1878 1.59063 58.3145 2.75639 58.3145C3.92215 58.3145 4.79647 59.2849 4.79647 60.3523Z" fill="#FFCF2D"/>
<path d="M22.1856 60.3523C22.1856 61.5169 21.3113 62.3902 20.1455 62.3902C18.9798 62.3902 18.1055 61.5169 18.1055 60.3523C18.1055 59.1878 18.9798 58.3145 20.1455 58.3145C21.2142 58.3145 22.1856 59.2849 22.1856 60.3523Z" fill="#FFCF2D"/>
<path d="M39.4779 60.3523C39.4779 61.5169 38.6035 62.3902 37.4378 62.3902C36.272 62.3902 35.3977 61.5169 35.3977 60.3523C35.3977 59.1878 36.272 58.3145 37.4378 58.3145C38.6035 58.3145 39.4779 59.2849 39.4779 60.3523Z" fill="#FFCF2D"/>
<path d="M56.8673 60.3523C56.8673 61.5169 55.993 62.3902 54.8272 62.3902C53.6614 62.3902 52.7871 61.5169 52.7871 60.3523C52.7871 59.1878 53.6614 58.3145 54.8272 58.3145C55.993 58.3145 56.8673 59.2849 56.8673 60.3523Z" fill="#FFCF2D"/>
<path d="M74.2564 60.3523C74.2564 61.5169 73.3821 62.3902 72.2163 62.3902C71.0506 62.3902 70.1763 61.5169 70.1763 60.3523C70.1763 59.1878 71.0506 58.3145 72.2163 58.3145C73.285 58.3145 74.2564 59.2849 74.2564 60.3523Z" fill="#FFCF2D"/>
<path d="M91.6456 60.3523C91.6456 61.5169 90.7713 62.3902 89.6055 62.3902C88.4397 62.3902 87.5654 61.5169 87.5654 60.3523C87.5654 59.1878 88.4397 58.3145 89.6055 58.3145C90.7713 58.3145 91.6456 59.2849 91.6456 60.3523Z" fill="#FFCF2D"/>
<path d="M108.938 60.3523C108.938 61.5169 108.064 62.3902 106.898 62.3902C105.732 62.3902 104.858 61.5169 104.858 60.3523C104.858 59.1878 105.732 58.3145 106.898 58.3145C108.064 58.3145 108.938 59.2849 108.938 60.3523Z" fill="#FFCF2D"/>
<path d="M126.327 60.3523C126.327 61.5169 125.453 62.3902 124.287 62.3902C123.121 62.3902 122.247 61.5169 122.247 60.3523C122.247 59.1878 123.121 58.3145 124.287 58.3145C125.453 58.3145 126.327 59.2849 126.327 60.3523Z" fill="#FFCF2D"/>
<path d="M143.716 60.3523C143.716 61.5169 142.842 62.3902 141.676 62.3902C140.511 62.3902 139.636 61.5169 139.636 60.3523C139.636 59.1878 140.511 58.3145 141.676 58.3145C142.745 58.3145 143.716 59.2849 143.716 60.3523Z" fill="#FFCF2D"/>
<path d="M4.79647 74.8113C4.79647 75.9758 3.92215 76.8492 2.75639 76.8492C1.59063 76.8492 0.716309 75.9758 0.716309 74.8113C0.716309 73.6468 1.59063 72.7734 2.75639 72.7734C3.92215 72.7734 4.79647 73.6468 4.79647 74.8113Z" fill="#FFCF2D"/>
<path d="M22.1856 74.8113C22.1856 75.9758 21.3113 76.8492 20.1455 76.8492C18.9798 76.8492 18.1055 75.9758 18.1055 74.8113C18.1055 73.6468 18.9798 72.7734 20.1455 72.7734C21.2142 72.7734 22.1856 73.6468 22.1856 74.8113Z" fill="#FFCF2D"/>
<path d="M39.4779 74.8113C39.4779 75.9758 38.6035 76.8492 37.4378 76.8492C36.272 76.8492 35.3977 75.9758 35.3977 74.8113C35.3977 73.6468 36.272 72.7734 37.4378 72.7734C38.6035 72.7734 39.4779 73.6468 39.4779 74.8113Z" fill="#FFCF2D"/>
<path d="M54.8272 76.8492C55.9539 76.8492 56.8673 75.9368 56.8673 74.8113C56.8673 73.6858 55.9539 72.7734 54.8272 72.7734C53.7005 72.7734 52.7871 73.6858 52.7871 74.8113C52.7871 75.9368 53.7005 76.8492 54.8272 76.8492Z" fill="#FFCF2D"/>
<path d="M74.2564 74.8113C74.2564 75.9758 73.3821 76.8492 72.2163 76.8492C71.0506 76.8492 70.1763 75.9758 70.1763 74.8113C70.1763 73.6468 71.0506 72.7734 72.2163 72.7734C73.285 72.7734 74.2564 73.6468 74.2564 74.8113Z" fill="#FFCF2D"/>
<path d="M91.6456 74.8113C91.6456 75.9758 90.7713 76.8492 89.6055 76.8492C88.4397 76.8492 87.5654 75.9758 87.5654 74.8113C87.5654 73.6468 88.4397 72.7734 89.6055 72.7734C90.7713 72.7734 91.6456 73.6468 91.6456 74.8113Z" fill="#FFCF2D"/>
<path d="M108.938 74.8113C108.938 75.9758 108.064 76.8492 106.898 76.8492C105.732 76.8492 104.858 75.9758 104.858 74.8113C104.858 73.6468 105.732 72.7734 106.898 72.7734C108.064 72.7734 108.938 73.6468 108.938 74.8113Z" fill="#FFCF2D"/>
<path d="M124.287 76.8492C125.414 76.8492 126.327 75.9368 126.327 74.8113C126.327 73.6858 125.414 72.7734 124.287 72.7734C123.16 72.7734 122.247 73.6858 122.247 74.8113C122.247 75.9368 123.16 76.8492 124.287 76.8492Z" fill="#FFCF2D"/>
<path d="M143.716 74.8113C143.716 75.9758 142.842 76.8492 141.676 76.8492C140.511 76.8492 139.636 75.9758 139.636 74.8113C139.636 73.6468 140.511 72.7734 141.676 72.7734C142.745 72.7734 143.716 73.6468 143.716 74.8113Z" fill="#FFCF2D"/>
<path d="M4.79647 89.2713C4.79647 90.4358 3.92215 91.3092 2.75639 91.3092C1.59063 91.3092 0.716309 90.4358 0.716309 89.2713C0.716309 88.1068 1.59063 87.2334 2.75639 87.2334C3.92215 87.2334 4.79647 88.1068 4.79647 89.2713Z" fill="#FFCF2D"/>
<path d="M22.1856 89.2713C22.1856 90.4358 21.3113 91.3092 20.1455 91.3092C18.9798 91.3092 18.1055 90.4358 18.1055 89.2713C18.1055 88.1068 18.9798 87.2334 20.1455 87.2334C21.2142 87.2334 22.1856 88.1068 22.1856 89.2713Z" fill="#FFCF2D"/>
<path d="M39.4779 89.2713C39.4779 90.4358 38.6035 91.3092 37.4378 91.3092C36.272 91.3092 35.3977 90.4358 35.3977 89.2713C35.3977 88.1068 36.272 87.2334 37.4378 87.2334C38.6035 87.2334 39.4779 88.1068 39.4779 89.2713Z" fill="#FFCF2D"/>
<path d="M56.8673 89.2713C56.8673 90.4358 55.993 91.3092 54.8272 91.3092C53.6614 91.3092 52.7871 90.4358 52.7871 89.2713C52.7871 88.1068 53.6614 87.2334 54.8272 87.2334C55.993 87.2334 56.8673 88.1068 56.8673 89.2713Z" fill="#FFCF2D"/>
<path d="M74.2564 89.2713C74.2564 90.4358 73.3821 91.3092 72.2163 91.3092C71.0506 91.3092 70.1763 90.4358 70.1763 89.2713C70.1763 88.1068 71.0506 87.2334 72.2163 87.2334C73.285 87.2334 74.2564 88.1068 74.2564 89.2713Z" fill="#FFCF2D"/>
<path d="M91.6456 89.2713C91.6456 90.4358 90.7713 91.3092 89.6055 91.3092C88.4397 91.3092 87.5654 90.4358 87.5654 89.2713C87.5654 88.1068 88.4397 87.2334 89.6055 87.2334C90.7713 87.2334 91.6456 88.1068 91.6456 89.2713Z" fill="#FFCF2D"/>
<path d="M108.938 89.2713C108.938 90.4358 108.064 91.3092 106.898 91.3092C105.732 91.3092 104.858 90.4358 104.858 89.2713C104.858 88.1068 105.732 87.2334 106.898 87.2334C108.064 87.2334 108.938 88.1068 108.938 89.2713Z" fill="#FFCF2D"/>
<path d="M126.327 89.2713C126.327 90.4358 125.453 91.3092 124.287 91.3092C123.121 91.3092 122.247 90.4358 122.247 89.2713C122.247 88.1068 123.121 87.2334 124.287 87.2334C125.453 87.2334 126.327 88.1068 126.327 89.2713Z" fill="#FFCF2D"/>
<path d="M143.716 89.2713C143.716 90.4358 142.842 91.3092 141.676 91.3092C140.511 91.3092 139.636 90.4358 139.636 89.2713C139.636 88.1068 140.511 87.2334 141.676 87.2334C142.745 87.2334 143.716 88.1068 143.716 89.2713Z" fill="#FFCF2D"/>
<path d="M4.79647 103.633C4.79647 104.797 3.92215 105.671 2.75639 105.671C1.59063 105.671 0.716309 104.797 0.716309 103.633C0.716309 102.468 1.59063 101.595 2.75639 101.595C3.92215 101.595 4.79647 102.565 4.79647 103.633Z" fill="#FFCF2D"/>
<path d="M22.1856 103.633C22.1856 104.797 21.3113 105.671 20.1455 105.671C18.9798 105.671 18.1055 104.797 18.1055 103.633C18.1055 102.468 18.9798 101.595 20.1455 101.595C21.2142 101.595 22.1856 102.565 22.1856 103.633Z" fill="#FFCF2D"/>
<path d="M39.4779 103.633C39.4779 104.797 38.6035 105.671 37.4378 105.671C36.272 105.671 35.3977 104.797 35.3977 103.633C35.3977 102.468 36.272 101.595 37.4378 101.595C38.6035 101.595 39.4779 102.565 39.4779 103.633Z" fill="#FFCF2D"/>
<path d="M56.8673 103.633C56.8673 104.797 55.993 105.671 54.8272 105.671C53.6614 105.671 52.7871 104.797 52.7871 103.633C52.7871 102.468 53.6614 101.595 54.8272 101.595C55.993 101.595 56.8673 102.565 56.8673 103.633Z" fill="#FFCF2D"/>
<path d="M74.2564 103.633C74.2564 104.797 73.3821 105.671 72.2163 105.671C71.0506 105.671 70.1763 104.797 70.1763 103.633C70.1763 102.468 71.0506 101.595 72.2163 101.595C73.285 101.595 74.2564 102.565 74.2564 103.633Z" fill="#FFCF2D"/>
<path d="M91.6456 103.633C91.6456 104.797 90.7713 105.671 89.6055 105.671C88.4397 105.671 87.5654 104.797 87.5654 103.633C87.5654 102.468 88.4397 101.595 89.6055 101.595C90.7713 101.595 91.6456 102.565 91.6456 103.633Z" fill="#FFCF2D"/>
<path d="M108.938 103.633C108.938 104.797 108.064 105.671 106.898 105.671C105.732 105.671 104.858 104.797 104.858 103.633C104.858 102.468 105.732 101.595 106.898 101.595C108.064 101.595 108.938 102.565 108.938 103.633Z" fill="#FFCF2D"/>
<path d="M126.327 103.633C126.327 104.797 125.453 105.671 124.287 105.671C123.121 105.671 122.247 104.797 122.247 103.633C122.247 102.468 123.121 101.595 124.287 101.595C125.453 101.595 126.327 102.565 126.327 103.633Z" fill="#FFCF2D"/>
<path d="M143.716 103.633C143.716 104.797 142.842 105.671 141.676 105.671C140.511 105.671 139.636 104.797 139.636 103.633C139.636 102.468 140.511 101.595 141.676 101.595C142.745 101.595 143.716 102.565 143.716 103.633Z" fill="#FFCF2D"/>
</svg>
