<svg width="620" height="551" viewBox="0 0 620 551" fill="none" xmlns="http://www.w3.org/2000/svg">
<path d="M396.302 15.918L438.208 56.3535L480.326 284.295H85.2539L396.302 15.918Z" fill="#FFCF2D"/>
<path d="M438.568 56.036L396.535 15.4735L403.565 8.16972C413.92 -2.58485 432.575 -1.35696 443.333 8.9742C454.09 19.3265 455.974 37.9776 445.62 48.7322L438.568 56.036Z" fill="white"/>
<path d="M438.59 56.925L395.646 15.4945L403.12 7.72497C408.16 2.47471 415.339 -0.256271 423.343 0.0189438C431.009 0.294159 438.462 3.38504 443.799 8.50828C449.135 13.6315 452.502 20.9776 453.052 28.6413C453.624 36.6226 451.147 43.9052 446.107 49.1555L438.59 56.925ZM397.424 15.4522L438.547 55.1255L445.154 48.2875C449.961 43.3124 452.29 36.3685 451.761 28.7472C451.231 21.3799 448.013 14.3513 442.888 9.43977C437.764 4.52824 430.628 1.56438 423.28 1.31034C415.656 1.03512 408.817 3.63908 404.031 8.61413L397.424 15.4522Z" fill="#FFCF2D"/>
<path d="M445.599 49.367C445.43 49.367 445.281 49.3035 445.154 49.1977L403.1 8.63516C402.845 8.38112 402.845 8.00005 403.078 7.746C403.332 7.49196 403.735 7.49196 403.968 7.72483L446.022 48.2873C446.277 48.5414 446.277 48.9224 446.044 49.1765C445.938 49.3035 445.768 49.367 445.599 49.367Z" fill="#FFCF2D"/>
<path d="M526.828 283.194C526.743 283.194 526.659 283.173 526.574 283.131C526.256 282.983 526.108 282.602 526.256 282.284L585.23 150.773L469.929 10.456V10.4348C467.748 7.47095 464.551 5.56561 460.909 5.03635C457.266 4.50709 453.645 5.45976 450.723 7.70382L446.022 11.3028C445.747 11.5145 445.345 11.4722 445.133 11.1758C444.921 10.9006 444.963 10.4983 445.26 10.2866L449.961 6.68764C453.158 4.25304 457.118 3.2157 461.099 3.7873C465.08 4.3589 468.574 6.4336 470.946 9.67267L586.713 150.583L586.543 150.943L527.4 282.813C527.294 283.046 527.061 283.194 526.828 283.194Z" fill="#3FB1B5"/>
<path d="M584.087 157.865C587.665 157.865 590.566 154.965 590.566 151.387C590.566 147.81 587.665 144.909 584.087 144.909C580.508 144.909 577.607 147.81 577.607 151.387C577.607 154.965 580.508 157.865 584.087 157.865Z" fill="white"/>
<path d="M584.087 158.501C580.169 158.501 576.972 155.304 576.972 151.388C576.972 147.471 580.169 144.274 584.087 144.274C588.004 144.274 591.202 147.471 591.202 151.388C591.202 155.304 588.004 158.501 584.087 158.501ZM584.087 145.545C580.868 145.545 578.242 148.17 578.242 151.388C578.242 154.606 580.868 157.231 584.087 157.231C587.305 157.231 589.931 154.606 589.931 151.388C589.931 148.17 587.305 145.545 584.087 145.545Z" fill="#FFCF2D"/>
<path d="M510.396 267.824H541.969C551.053 267.824 558.401 275.192 558.401 284.252V284.718H493.942V284.252C493.964 275.192 501.311 267.824 510.396 267.824Z" fill="white"/>
<path d="M559.036 285.354H493.307V284.253C493.328 274.853 500.994 267.189 510.396 267.189H541.969C551.371 267.189 559.036 274.853 559.036 284.253V285.354ZM494.578 284.083H557.766C557.681 275.446 550.629 268.46 541.969 268.46H510.396C501.756 268.46 494.684 275.446 494.578 284.083Z" fill="#FFCF2D"/>
<path d="M357.444 236.64H157.568C150.051 236.64 143.974 230.564 143.974 223.049V83.2818C143.974 75.7663 150.051 69.6904 157.568 69.6904H357.444C364.962 69.6904 371.039 75.7663 371.039 83.2818V223.028C371.06 230.543 364.962 236.64 357.444 236.64Z" fill="white"/>
<path d="M357.444 237.276H157.568C149.712 237.276 143.338 230.903 143.338 223.049V83.2822C143.338 75.428 149.712 69.0557 157.568 69.0557H357.444C365.301 69.0557 371.674 75.428 371.674 83.2822V223.028C371.696 226.818 370.213 230.395 367.524 233.084C364.835 235.794 361.256 237.276 357.444 237.276ZM157.568 70.3259C150.432 70.3259 144.609 76.1478 144.609 83.2822V223.049C144.609 230.184 150.432 236.005 157.568 236.005H357.444C360.917 236.005 364.178 234.651 366.635 232.195C369.07 229.739 370.425 226.479 370.404 223.028V83.2822C370.404 76.1478 364.581 70.3259 357.444 70.3259H157.568Z" fill="#3FB1B5"/>
<path d="M357.572 223.642H159.623C156.679 223.642 154.308 221.249 154.308 218.328V84.6155C154.308 81.6728 156.7 79.3018 159.623 79.3018H357.572C360.515 79.3018 362.887 81.694 362.887 84.6155V218.307C362.908 221.249 360.515 223.642 357.572 223.642Z" fill="#66B0F0"/>
<path d="M357.572 224.277H159.623C156.34 224.277 153.672 221.61 153.672 218.328V84.6159C153.672 81.3345 156.34 78.667 159.623 78.667H357.572C360.854 78.667 363.522 81.3345 363.522 84.6159V218.307C363.543 219.895 362.929 221.398 361.807 222.52C360.663 223.642 359.181 224.277 357.572 224.277ZM159.623 79.9372C157.039 79.9372 154.943 82.0331 154.943 84.6159V218.328C154.943 220.911 157.039 223.007 159.623 223.007H357.572C358.821 223.007 360.007 222.52 360.896 221.631C361.786 220.742 362.252 219.577 362.252 218.328V84.6159C362.252 82.0331 360.155 79.9372 357.572 79.9372H159.623Z" fill="#66B0F0"/>
<path d="M166.716 92.4283H163.582C162.206 92.4283 161.083 91.3062 161.083 89.9302V86.7969C161.083 85.4209 162.206 84.2988 163.582 84.2988H166.716C168.093 84.2988 169.215 85.4209 169.215 86.7969V89.9302C169.194 91.3274 168.093 92.4283 166.716 92.4283ZM163.582 85.5691C162.905 85.5691 162.354 86.1195 162.354 86.7969V89.9302C162.354 90.6076 162.905 91.1581 163.582 91.1581H166.716C167.394 91.1581 167.923 90.6076 167.944 89.909V86.7969C167.944 86.1195 167.394 85.5691 166.716 85.5691H163.582Z" fill="white"/>
<path d="M180.967 92.4283H177.833C176.457 92.4283 175.334 91.3062 175.334 89.9302V86.7969C175.334 85.4209 176.457 84.2988 177.833 84.2988H180.967C182.344 84.2988 183.466 85.4209 183.466 86.7969V89.9302C183.466 91.3062 182.344 92.4283 180.967 92.4283ZM177.833 85.5691C177.156 85.5691 176.605 86.1195 176.605 86.7969V89.9302C176.605 90.6076 177.156 91.1581 177.833 91.1581H180.967C181.645 91.1581 182.195 90.6076 182.195 89.9302V86.7969C182.195 86.1195 181.645 85.5691 180.967 85.5691H177.833Z" fill="white"/>
<path d="M195.219 92.4283H192.085C190.708 92.4283 189.586 91.3062 189.586 89.9302V86.7969C189.586 85.4209 190.708 84.2988 192.085 84.2988H195.219C196.595 84.2988 197.717 85.4209 197.717 86.7969V89.9302C197.717 91.3062 196.595 92.4283 195.219 92.4283ZM192.085 85.5691C191.407 85.5691 190.856 86.1195 190.856 86.7969V89.9302C190.856 90.6076 191.407 91.1581 192.085 91.1581H195.219C195.917 91.1581 196.447 90.6288 196.447 89.9302V86.7969C196.447 86.1195 195.896 85.5691 195.219 85.5691H192.085Z" fill="white"/>
<path d="M299.699 284.295H222.112L237.337 236.641H284.453L299.699 284.295Z" fill="white"/>
<path d="M300.567 284.931H221.243L236.871 236.006H284.918L300.567 284.931ZM222.98 283.66H298.83L283.986 237.276H237.802L222.98 283.66Z" fill="#3FB1B5"/>
<path d="M228.21 265.221L237.337 236.641H284.452L228.21 265.221Z" fill="#3FB1B5"/>
<path d="M346.052 123.781H308.338C304.463 123.781 301.308 120.627 301.308 116.752V92.4065C301.308 88.5323 304.463 85.3779 308.338 85.3779H346.052C349.927 85.3779 353.082 88.5323 353.082 92.4065V116.752C353.082 120.627 349.927 123.781 346.052 123.781ZM308.338 86.6482C305.162 86.6482 302.579 89.2309 302.579 92.4065V116.752C302.579 119.928 305.162 122.511 308.338 122.511H346.052C349.228 122.511 351.812 119.928 351.812 116.752V92.4065C351.812 89.2309 349.228 86.6482 346.052 86.6482H308.338Z" fill="white"/>
<path d="M341.499 95.3278H312.722C312.362 95.3278 312.086 95.0526 312.086 94.6927C312.086 94.3328 312.362 94.0576 312.722 94.0576H341.499C341.859 94.0576 342.134 94.3328 342.134 94.6927C342.134 95.0526 341.859 95.3278 341.499 95.3278Z" fill="white"/>
<path d="M341.499 101.891H312.722C312.362 101.891 312.086 101.616 312.086 101.256C312.086 100.896 312.362 100.621 312.722 100.621H341.499C341.859 100.621 342.134 100.896 342.134 101.256C342.134 101.616 341.859 101.891 341.499 101.891Z" fill="white"/>
<path d="M341.499 108.454H312.722C312.362 108.454 312.086 108.179 312.086 107.819C312.086 107.459 312.362 107.184 312.722 107.184H341.499C341.859 107.184 342.134 107.459 342.134 107.819C342.134 108.179 341.859 108.454 341.499 108.454Z" fill="white"/>
<path d="M341.499 115.016H312.722C312.362 115.016 312.086 114.741 312.086 114.381C312.086 114.021 312.362 113.746 312.722 113.746H341.499C341.859 113.746 342.134 114.021 342.134 114.381C342.134 114.741 341.859 115.016 341.499 115.016Z" fill="white"/>
<path d="M356.47 223.643H206.569L197.781 236.239C187.849 250.466 166.864 250.677 156.658 236.641L103.126 163.032C105.371 165.826 115.641 162.714 125.424 156.279C135.355 149.737 141.771 141.502 139.76 138.453L176.88 185.748L188.252 165.678C191.365 160.364 196.531 156.554 202.545 155.157L241.233 146.964H274.584L311.345 155.072C317.74 156.533 323.161 160.703 326.232 166.483L356.47 223.643Z" fill="white"/>
<path d="M177.071 247.671C168.707 247.671 161.083 243.797 156.149 237.001L102.618 163.392L103.634 162.63C105.434 164.853 114.984 162.397 125.085 155.749C129.786 152.658 133.873 149.081 136.583 145.651C139.04 142.56 140.035 139.998 139.23 138.792L140.268 138.051L176.796 184.605L187.701 165.361C190.899 159.899 196.256 155.961 202.397 154.543L241.169 146.328H274.648L274.711 146.35L311.472 154.458C318.037 155.961 323.627 160.237 326.782 166.186L357.508 224.278H206.886L198.289 236.599C193.44 243.543 185.795 247.586 177.304 247.671C177.24 247.671 177.156 247.671 177.071 247.671ZM105.074 164.62L157.187 236.26C161.93 242.781 169.257 246.486 177.325 246.401C185.393 246.316 192.656 242.484 197.272 235.879L206.251 223.008H355.433L325.681 166.779C322.695 161.148 317.422 157.104 311.218 155.686L274.521 147.599H241.296L202.672 155.77C196.87 157.125 191.809 160.851 188.802 165.996L176.965 186.891L140.67 140.655C140.374 142.243 139.336 144.233 137.557 146.455C134.762 149.97 130.569 153.653 125.763 156.808C119.05 161.211 110.982 164.683 106.175 164.683C105.794 164.683 105.413 164.662 105.074 164.62Z" fill="#3FB1B5"/>
<path d="M315.327 223.41C315.094 223.41 314.882 223.283 314.755 223.072L304.104 202.049C303.955 201.732 304.061 201.351 304.379 201.203C304.696 201.054 305.078 201.16 305.226 201.478L315.877 222.5C316.025 222.818 315.919 223.199 315.602 223.347C315.517 223.389 315.432 223.41 315.327 223.41Z" fill="#3FB1B5"/>
<path d="M205.722 225.379C205.616 225.379 205.531 225.358 205.425 225.315C205.108 225.167 204.981 224.765 205.15 224.469L215.695 203.658C215.844 203.341 216.246 203.214 216.542 203.383C216.86 203.531 216.987 203.933 216.818 204.23L206.272 225.04C206.166 225.252 205.955 225.379 205.722 225.379Z" fill="#3FB1B5"/>
<path d="M186.6 198.916C186.409 198.916 186.219 198.831 186.092 198.662L161.93 167.774C161.719 167.499 161.761 167.097 162.036 166.885C162.311 166.673 162.714 166.716 162.926 166.991L187.087 197.878C187.299 198.153 187.256 198.556 186.981 198.767C186.875 198.873 186.727 198.916 186.6 198.916Z" fill="#3FB1B5"/>
<path d="M270.879 168.854L261.583 157.528C261.35 157.253 261.392 156.851 261.668 156.639C261.943 156.406 262.345 156.449 262.557 156.724L271.048 167.034L290.466 150.563C290.742 150.33 291.144 150.373 291.356 150.627C291.589 150.902 291.546 151.304 291.292 151.516L270.879 168.854Z" fill="#3FB1B5"/>
<path d="M246.739 169.257L224.356 151.537C224.081 151.325 224.038 150.923 224.25 150.648C224.462 150.373 224.864 150.33 225.139 150.542L246.506 167.457L254.743 156.936C254.955 156.66 255.357 156.618 255.632 156.83C255.908 157.041 255.95 157.444 255.738 157.719L246.739 169.257Z" fill="#3FB1B5"/>
<path d="M113.311 174.464C111.3 174.464 110.241 173.85 109.712 173.172C109.5 172.897 109.542 172.495 109.817 172.283C110.093 172.071 110.495 172.114 110.707 172.389C111.596 173.511 114.497 173.447 118.457 172.262C122.671 170.992 127.753 168.493 132.369 165.424C137.092 162.291 141.2 158.67 143.931 155.198C146.409 152.065 147.404 149.482 146.599 148.255C146.409 147.958 146.494 147.577 146.79 147.365C147.086 147.175 147.468 147.26 147.679 147.556C148.823 149.313 147.849 152.298 144.948 155.982C142.131 159.538 137.917 163.264 133.089 166.461C128.304 169.637 123.243 172.135 118.838 173.469C116.445 174.188 114.645 174.464 113.311 174.464Z" fill="#3FB1B5"/>
<path d="M140.48 153.907C138.807 153.907 137.452 152.552 137.452 150.88C137.452 149.207 138.807 147.853 140.48 147.853C142.153 147.853 143.508 149.207 143.508 150.88C143.508 152.552 142.153 153.907 140.48 153.907ZM140.48 149.123C139.506 149.123 138.722 149.906 138.722 150.88C138.722 151.854 139.506 152.637 140.48 152.637C141.454 152.637 142.237 151.854 142.237 150.88C142.237 149.906 141.454 149.123 140.48 149.123Z" fill="#3FB1B5"/>
<path d="M258.639 168.939C256.966 168.939 255.611 167.584 255.611 165.911C255.611 164.239 256.966 162.884 258.639 162.884C260.312 162.884 261.667 164.239 261.667 165.911C261.667 167.584 260.312 168.939 258.639 168.939ZM258.639 164.154C257.665 164.154 256.881 164.937 256.881 165.911C256.881 166.885 257.665 167.668 258.639 167.668C259.613 167.668 260.396 166.885 260.396 165.911C260.396 164.937 259.613 164.154 258.639 164.154Z" fill="#3FB1B5"/>
<path d="M258.639 188.203C256.966 188.203 255.611 186.848 255.611 185.176C255.611 183.503 256.966 182.148 258.639 182.148C260.312 182.148 261.667 183.503 261.667 185.176C261.667 186.848 260.312 188.203 258.639 188.203ZM258.639 183.419C257.665 183.419 256.881 184.202 256.881 185.176C256.881 186.15 257.665 186.933 258.639 186.933C259.613 186.933 260.396 186.15 260.396 185.176C260.396 184.202 259.613 183.419 258.639 183.419Z" fill="#3FB1B5"/>
<path d="M197.019 237.255L206.569 223.643V237.255H197.019Z" fill="#3FB1B5"/>
<path d="M125.191 155.643C115.407 162.079 105.137 165.191 102.893 162.397C102.85 162.354 102.829 162.312 102.787 162.249C102.321 161.55 102.363 160.597 102.787 159.433C104.248 155.601 110.283 149.673 117.949 144.635C124.047 140.612 130.061 137.818 134.233 136.95C136.647 136.463 138.446 136.611 139.315 137.543L139.526 137.797C141.517 140.845 135.122 149.102 125.191 155.643Z" fill="#FE5244"/>
<path d="M125.191 155.643C119.622 159.305 113.883 161.909 109.563 162.925L90.2299 135.658C87.5406 131.847 88.43 126.576 92.2628 123.887L109.669 111.651L99.8013 94.8626C98.3613 92.428 99.1872 89.2736 101.644 87.8552C102.448 87.3894 103.316 87.1777 104.185 87.1777C105.857 87.1777 107.509 88.0034 108.483 89.5277L139.336 137.5L139.548 137.839C141.517 140.845 135.122 149.101 125.191 155.643Z" fill="#E57281"/>
<path d="M115.132 135.975C114.857 135.975 114.582 135.954 114.306 135.89C113.248 135.679 112.337 135.043 111.765 134.154L101.58 118.912C101.389 118.615 101.474 118.234 101.749 118.022C102.046 117.832 102.427 117.917 102.639 118.192L112.824 133.434C113.226 134.048 113.84 134.472 114.56 134.62C115.28 134.768 116.022 134.62 116.636 134.218L119.028 132.651C120.299 131.826 120.659 130.132 119.854 128.862L109.076 112.158C108.885 111.862 108.97 111.481 109.267 111.29C109.563 111.1 109.944 111.184 110.135 111.481L120.913 128.184C122.099 130.047 121.548 132.524 119.706 133.71L117.313 135.276C116.678 135.742 115.916 135.975 115.132 135.975Z" fill="#9A3B82"/>
<path d="M107.234 141.035C105.921 141.035 104.629 140.4 103.846 139.235C103.655 138.939 103.74 138.558 104.036 138.346C104.333 138.156 104.714 138.24 104.926 138.537C105.752 139.786 107.446 140.146 108.716 139.341L110.897 137.965C111.511 137.563 111.956 136.949 112.104 136.208C112.253 135.467 112.126 134.726 111.723 134.112C111.533 133.816 111.617 133.435 111.914 133.223C112.21 133.032 112.591 133.117 112.803 133.413C113.396 134.324 113.608 135.403 113.375 136.483C113.142 137.542 112.507 138.452 111.596 139.045L109.415 140.421C108.737 140.823 107.975 141.035 107.234 141.035Z" fill="#9A3B82"/>
<path d="M99.4839 145.778C98.2133 145.778 96.964 145.185 96.1805 144.063L90.3996 135.912C90.1878 135.616 90.2725 135.235 90.5478 135.023C90.8231 134.811 91.2254 134.896 91.4372 135.171L97.2181 143.322C98.0863 144.529 99.7168 144.846 100.945 144.063L100.987 144.042L102.999 142.92C103.634 142.518 104.058 141.904 104.227 141.184C104.397 140.443 104.248 139.702 103.846 139.067L93.8723 124.247C93.6818 123.951 93.7453 123.57 94.0418 123.358C94.3382 123.168 94.7194 123.231 94.9311 123.528L104.905 138.347C105.519 139.278 105.709 140.379 105.477 141.438C105.244 142.496 104.608 143.407 103.677 143.978L103.655 143.999L101.644 145.121C100.945 145.587 100.204 145.778 99.4839 145.778Z" fill="#9A3B82"/>
<path d="M132.136 126.322L127.075 118.468C125.402 115.864 121.908 115.144 119.346 116.88L106.789 125.39C106.789 125.39 110.431 131.932 119.283 126.745L122.247 131.466C116.191 135.298 114.455 143.364 118.393 149.355L132.136 126.322Z" fill="#E57281"/>
<path d="M118.393 149.99C118.181 149.99 117.991 149.884 117.864 149.693C115.873 146.645 115.174 143.004 115.958 139.447C116.678 136.102 118.605 133.223 121.379 131.275L119.071 127.592C116.021 129.264 113.247 129.751 110.791 129.095C107.678 128.248 106.281 125.792 106.217 125.707L105.942 125.199L118.308 116.562C119.706 115.63 121.358 115.292 122.988 115.63C124.619 115.969 126.016 116.922 126.927 118.34L131.988 126.194C132.178 126.491 132.094 126.872 131.797 127.062C131.501 127.253 131.12 127.168 130.929 126.872L125.868 119.018C125.148 117.896 124.047 117.133 122.734 116.879C121.442 116.604 120.108 116.879 119.028 117.62L107.657 125.559C108.165 126.216 109.309 127.401 111.13 127.888C113.375 128.502 116 127.93 118.944 126.216L119.473 125.898L123.094 131.677L122.565 132.016C119.791 133.773 117.864 136.526 117.165 139.743C116.466 142.961 117.08 146.264 118.901 149.016C119.092 149.312 119.007 149.693 118.711 149.905C118.626 149.948 118.52 149.99 118.393 149.99Z" fill="#9A3B82"/>
<path d="M125.191 155.644C119.622 159.306 113.883 161.91 109.563 162.926L104.756 156.152C107.446 152.637 112.252 148.403 117.949 144.656C124.047 140.634 130.061 137.839 134.233 136.971C136.647 136.484 138.447 136.633 139.315 137.564L139.527 137.818C139.548 137.861 139.569 137.882 139.59 137.924C139.611 137.945 139.611 137.966 139.632 138.009C139.654 138.051 139.675 138.072 139.696 138.115C141.136 141.354 134.804 149.293 125.191 155.644Z" fill="#9A3B82"/>
<path d="M274.563 128.334V146.943C274.563 152.341 267.067 156.702 257.856 156.702C248.623 156.702 241.148 152.341 241.148 146.943V128.334H274.563Z" fill="#E57281"/>
<path d="M246.039 153.844C243.011 152.087 241.126 149.631 241.126 146.943V128.334H274.563V133.5C274.563 138.856 271.302 143.661 266.347 145.673L246.039 153.844Z" fill="#9A3B82"/>
<path d="M283.88 127.233V127.55C283.88 130.768 281.275 133.372 278.057 133.372H274.224C272.932 138.58 268.231 142.454 262.598 142.454H253.112C247.5 142.454 242.778 138.601 241.508 133.372H237.675C234.456 133.372 231.852 130.768 231.852 127.55V127.233C231.852 124.015 234.456 121.411 237.675 121.411H241.148V116.817C241.148 111.905 244.769 107.841 249.491 107.163C250.528 108.899 253.662 113.048 260.057 112.816C263.064 112.71 265.86 112.138 268.168 111.461C270.942 110.656 273.716 112.35 274.414 114.996C274.52 115.589 274.584 116.182 274.584 116.796V121.39H278.057C281.254 121.39 283.88 124.015 283.88 127.233Z" fill="#E57281"/>
<path d="M277.231 121.39H274.562V116.288C274.562 115.843 274.499 115.398 274.393 114.996C273.694 112.35 270.92 110.656 268.146 111.461C265.838 112.138 263.064 112.71 260.036 112.816C253.641 113.049 250.507 108.899 249.469 107.163C244.747 107.841 241.126 111.905 241.126 116.817V121.411H237.802C237.802 121.411 233.99 107.629 236.849 103.734C239.665 99.9017 243.053 101.574 243.053 101.574C243.053 101.574 241.02 90.0998 252.37 90.3115C263.699 90.5232 278.438 103.67 279.518 106.083C281.212 109.788 277.231 121.39 277.231 121.39Z" fill="#9A3B82"/>
<path d="M275.855 128.842C275.558 128.842 275.325 128.609 275.325 128.312C275.325 125.772 277.4 123.697 279.941 123.697C280.238 123.697 280.471 123.93 280.471 124.227C280.471 124.523 280.238 124.756 279.941 124.756C277.972 124.756 276.384 126.344 276.384 128.312C276.384 128.609 276.151 128.842 275.855 128.842Z" fill="#9A3B82"/>
<path d="M239.898 128.842C239.602 128.842 239.369 128.609 239.369 128.312C239.369 126.344 237.78 124.756 235.811 124.756C235.515 124.756 235.282 124.523 235.282 124.227C235.282 123.93 235.515 123.697 235.811 123.697C238.352 123.697 240.427 125.772 240.427 128.312C240.427 128.609 240.194 128.842 239.898 128.842Z" fill="#9A3B82"/>
<path d="M269.226 117.346C269.121 117.346 269.015 117.303 268.909 117.24C268.803 117.155 266.071 115.229 262.577 116.689C262.302 116.795 262.006 116.668 261.878 116.393C261.773 116.118 261.9 115.822 262.175 115.694C266.241 114.022 269.396 116.266 269.523 116.372C269.756 116.541 269.819 116.88 269.629 117.113C269.544 117.261 269.396 117.346 269.226 117.346Z" fill="#9A3B82"/>
<path d="M246.272 117.346C246.103 117.346 245.955 117.261 245.849 117.134C245.679 116.902 245.722 116.563 245.955 116.393C246.082 116.288 249.258 114.043 253.303 115.716C253.578 115.822 253.705 116.139 253.599 116.415C253.493 116.69 253.175 116.817 252.9 116.711C249.385 115.25 246.611 117.24 246.569 117.261C246.484 117.304 246.378 117.346 246.272 117.346Z" fill="#9A3B82"/>
<path d="M259.189 135.171C258.363 135.171 257.41 135.002 256.33 134.599C256.055 134.494 255.907 134.197 256.013 133.922C256.119 133.647 256.415 133.499 256.69 133.604C261.137 135.256 262.598 132.334 262.662 132.207C262.789 131.953 263.107 131.826 263.361 131.953C263.615 132.08 263.742 132.398 263.615 132.652C263.594 132.694 262.387 135.171 259.189 135.171Z" fill="#9A3B82"/>
<path d="M257.686 131.191C257.199 131.191 256.67 131.191 256.225 131.149C255.928 131.128 255.717 130.874 255.738 130.577C255.759 130.281 256.013 130.069 256.31 130.09C257.559 130.175 259.486 130.09 259.507 130.09C259.804 130.069 260.036 130.302 260.058 130.598C260.079 130.895 259.846 131.128 259.549 131.149C259.507 131.149 258.639 131.191 257.686 131.191Z" fill="#9A3B82"/>
<path d="M265.817 125.645C266.402 125.645 266.876 124.848 266.876 123.866C266.876 122.884 266.402 122.088 265.817 122.088C265.232 122.088 264.758 122.884 264.758 123.866C264.758 124.848 265.232 125.645 265.817 125.645Z" fill="#9A3B82"/>
<path d="M250.634 125.645C251.219 125.645 251.693 124.848 251.693 123.866C251.693 122.884 251.219 122.088 250.634 122.088C250.049 122.088 249.575 122.884 249.575 123.866C249.575 124.848 250.049 125.645 250.634 125.645Z" fill="#9A3B82"/>
<path d="M253.154 130.387H246.484C244.917 130.387 243.625 129.095 243.625 127.529V120.86C243.625 119.293 244.917 118.002 246.484 118.002H253.154C254.721 118.002 256.013 119.293 256.013 120.86V127.529C256.034 128.27 255.737 128.989 255.208 129.519C254.657 130.09 253.937 130.387 253.154 130.387ZM246.484 119.06C245.488 119.06 244.684 119.865 244.684 120.86V127.529C244.684 128.524 245.488 129.328 246.484 129.328H253.154C253.641 129.328 254.107 129.138 254.446 128.778C254.785 128.439 254.954 127.994 254.954 127.529V120.86C254.954 119.865 254.149 119.06 253.154 119.06H246.484Z" fill="white"/>
<path d="M269.48 130.387H262.81C261.243 130.387 259.951 129.095 259.951 127.529V120.86C259.951 119.293 261.243 118.002 262.81 118.002H269.48C271.047 118.002 272.339 119.293 272.339 120.86V127.529C272.339 129.095 271.047 130.387 269.48 130.387ZM262.81 119.06C261.815 119.06 261.01 119.865 261.01 120.86V127.529C261.01 128.524 261.815 129.328 262.81 129.328H269.48C270.475 129.328 271.28 128.524 271.28 127.529V120.86C271.28 119.865 270.475 119.06 269.48 119.06H262.81Z" fill="white"/>
<path d="M260.481 122.405H255.504V123.464H260.481V122.405Z" fill="white"/>
<path d="M271.239 216.063H248.094C245.637 216.063 243.647 214.073 243.647 211.617V199.317C243.647 196.861 245.637 194.871 248.094 194.871H271.239C273.695 194.871 275.686 196.861 275.686 199.317V211.617C275.686 214.073 273.695 216.063 271.239 216.063ZM248.094 196.141C246.336 196.141 244.918 197.56 244.918 199.317V211.617C244.918 213.374 246.336 214.792 248.094 214.792H271.239C272.996 214.792 274.415 213.374 274.415 211.617V199.317C274.415 197.56 272.996 196.141 271.239 196.141H248.094Z" fill="#66B0F0"/>
<path d="M260.248 210.474H252.413C251.164 210.474 250.147 209.457 250.147 208.208V202.725C250.147 201.476 251.164 200.46 252.413 200.46H260.248C261.498 200.46 262.514 201.476 262.514 202.725V208.208C262.514 209.457 261.498 210.474 260.248 210.474Z" fill="#66B0F0"/>
<path d="M267.872 210.325L265.458 208.716C264.801 208.272 264.399 207.51 264.399 206.684V204.271C264.399 203.445 264.801 202.683 265.458 202.238L267.872 200.629C268.443 200.248 269.185 200.672 269.185 201.391V209.584C269.206 210.283 268.443 210.706 267.872 210.325Z" fill="#66B0F0"/>
<path d="M580.783 285.354H18.6353C18.2753 285.354 18 285.079 18 284.719C18 284.359 18.2753 284.084 18.6353 284.084H580.783C581.143 284.084 581.418 284.359 581.418 284.719C581.418 285.079 581.143 285.354 580.783 285.354Z" fill="#3FB1B5"/>
<path d="M199.623 288.424V549.794H184.864V500.043C184.864 495.407 181.094 491.639 176.457 491.639H70.8121C66.1746 491.639 62.4054 495.407 62.4054 500.043V549.794H47.646V288.424H199.623Z" fill="white"/>
<path d="M200.258 550.429H184.228V500.044C184.228 495.767 180.734 492.274 176.457 492.274H70.8121C66.5346 492.274 63.0407 495.767 63.0407 500.044V550.429H47.0107V287.789H200.258V550.429ZM185.499 549.159H198.988V289.059H48.2813V549.159H61.7701V500.044C61.7701 495.069 65.8358 491.004 70.8121 491.004H176.457C181.433 491.004 185.499 495.069 185.499 500.044V549.159Z" fill="#3FB1B5"/>
<path d="M200.068 288.424V357.778L47.646 483.255L47.6672 288.424H200.068Z" fill="#D0F0E4"/>
<path d="M176.901 364.32H70.3883C65.645 364.32 61.791 360.467 61.791 355.725V308.325C61.791 303.583 65.645 299.729 70.3883 299.729H176.901C181.645 299.729 185.499 303.583 185.499 308.325V355.725C185.499 360.467 181.645 364.32 176.901 364.32ZM70.3883 301C66.3438 301 63.0615 304.281 63.0615 308.325V355.725C63.0615 359.769 66.3438 363.05 70.3883 363.05H176.901C180.946 363.05 184.228 359.769 184.228 355.725V308.325C184.228 304.281 180.946 301 176.901 301H70.3883Z" fill="#3FB1B5"/>
<path d="M150.728 399.59H98.2978L96.1167 384.58H148.569L150.728 399.59Z" fill="#FFCF2D"/>
<path d="M178.702 375.922C172.158 375.922 166.864 381.214 166.864 387.756V399.59H122.248V387.756C122.248 381.214 127.541 375.922 134.085 375.922H178.702Z" fill="white"/>
<path d="M167.5 400.226H121.612V387.756C121.612 380.876 127.203 375.287 134.085 375.287H178.702V376.557C172.518 376.557 167.5 381.575 167.5 387.756V400.226ZM122.883 398.956H166.229V387.756C166.229 382.845 169.088 378.59 173.217 376.557H134.085C127.901 376.557 122.883 381.575 122.883 387.756V398.956Z" fill="#3FB1B5"/>
<path d="M189.819 384.581H145.202C143.826 379.584 139.231 375.922 133.789 375.922H178.405C183.848 375.922 188.422 379.584 189.819 384.581Z" fill="white"/>
<path d="M190.666 385.216H144.737L144.61 384.75C143.276 379.923 138.829 376.557 133.81 376.557V375.287H178.427C183.996 375.287 188.951 379.034 190.455 384.412L190.666 385.216ZM145.668 383.946H188.951C187.363 379.564 183.128 376.557 178.406 376.557H139.273C142.259 378.018 144.631 380.664 145.668 383.946Z" fill="#3FB1B5"/>
<path d="M176.901 463.546H70.3883C65.645 463.546 61.791 459.693 61.791 454.951V407.55C61.791 402.808 65.645 398.955 70.3883 398.955H176.901C181.645 398.955 185.499 402.808 185.499 407.55V454.951C185.499 459.693 181.645 463.546 176.901 463.546ZM70.3883 400.225C66.3438 400.225 63.0615 403.507 63.0615 407.55V454.951C63.0615 458.994 66.3438 462.276 70.3883 462.276H176.901C180.946 462.276 184.228 458.994 184.228 454.951V407.55C184.228 403.507 180.946 400.225 176.901 400.225H70.3883Z" fill="#3FB1B5"/>
<path d="M145.477 331.718C145.117 331.718 144.842 331.443 144.842 331.083C144.842 327.653 142.068 324.88 138.637 324.88H108.674C105.243 324.88 102.469 327.653 102.469 331.083C102.469 331.443 102.194 331.718 101.834 331.718C101.474 331.718 101.199 331.443 101.199 331.083C101.199 326.954 104.544 323.609 108.674 323.609H138.637C142.766 323.609 146.112 326.954 146.112 331.083C146.112 331.443 145.837 331.718 145.477 331.718Z" fill="#3FB1B5"/>
<path d="M145.477 430.943C145.117 430.943 144.842 430.668 144.842 430.308C144.842 426.878 142.068 424.105 138.637 424.105H108.674C105.243 424.105 102.469 426.878 102.469 430.308C102.469 430.668 102.194 430.943 101.834 430.943C101.474 430.943 101.199 430.668 101.199 430.308C101.199 426.18 104.544 422.835 108.674 422.835H138.637C142.766 422.835 146.112 426.18 146.112 430.308C146.112 430.668 145.837 430.943 145.477 430.943Z" fill="#3FB1B5"/>
<path d="M558.4 288.424H542.667V550.365H558.4V288.424Z" fill="white"/>
<path d="M559.035 551.001H542.031V287.789H559.035V551.001ZM543.302 549.731H557.765V289.059H543.302V549.731Z" fill="#3FB1B5"/>
<path d="M619.365 551.001H291.017C290.657 551.001 290.381 550.725 290.381 550.366C290.381 550.006 290.657 549.73 291.017 549.73H619.365C619.725 549.73 620 550.006 620 550.366C620 550.725 619.725 551.001 619.365 551.001Z" fill="#3FB1B5"/>
<path d="M92.3267 248.792H82.8189C82.8189 248.792 69.2454 192.246 57.3235 190.404C45.4017 188.563 44.7876 210.326 44.7876 210.326C44.7876 210.326 44.9994 177.236 74.7934 181.767C104.609 186.297 92.3267 248.792 92.3267 248.792Z" fill="white"/>
<path d="M92.8564 249.428H82.3322L82.2051 248.941C82.1628 248.792 78.7535 234.651 73.9467 220.488C65.9846 197.052 60.4578 191.526 57.2391 191.04C55.0369 190.701 53.0887 191.209 51.4794 192.564C45.8679 197.221 45.4444 210.22 45.4444 210.347L44.1738 210.326C44.1738 210.156 44.2162 206.282 45.4655 201.328C46.6302 196.734 49.0866 190.32 54.2322 185.916C59.4626 181.449 66.4082 179.84 74.9207 181.153C80.4264 181.979 84.8944 184.815 88.219 189.536C93.5552 197.137 95.9904 209.437 95.4187 226.14C94.9952 238.525 93.0047 248.814 92.9835 248.919L92.8564 249.428ZM83.3274 248.157H91.8188C92.2212 245.934 93.7882 236.789 94.1481 226.077C94.5293 214.793 93.6188 199.444 87.1814 190.277C84.0686 185.832 79.8758 183.185 74.7301 182.423C66.6199 181.195 59.992 182.698 55.058 186.911C53.5758 188.182 52.3052 189.642 51.2464 191.188C53.0464 189.918 55.1216 189.473 57.4509 189.833C62.6389 190.637 68.6104 200.841 75.1748 220.149C79.4735 232.83 82.671 245.532 83.3274 248.157Z" fill="#3FB1B5"/>
<path d="M88.1546 248.581C87.8158 248.581 87.5193 248.305 87.5193 247.945C86.8205 205.795 77.8844 190.912 70.5153 185.874C64.925 182.042 60.0334 183.778 59.9911 183.799C59.6523 183.926 59.2923 183.757 59.1652 183.418C59.0382 183.079 59.2076 182.719 59.5464 182.592C59.7793 182.508 65.0944 180.624 71.2353 184.815C75.9786 188.076 79.8538 194.046 82.7336 202.598C86.4394 213.607 88.4722 228.85 88.7898 247.924C88.7898 248.284 88.5146 248.581 88.1546 248.581Z" fill="#3FB1B5"/>
<path d="M118.224 247.945H73.5649V284.295H118.224V247.945Z" fill="#FE5244"/>
<path d="M127.626 266.131C124.788 267.358 121.4 267.21 118.245 265.834C115.916 264.818 113.714 263.146 111.935 260.859C109.478 257.684 107.827 253.344 107.827 247.945C107.827 234.862 97.4083 226.648 93.1309 243.965C92.8344 245.172 92.5591 246.484 92.3262 247.945V247.903V247.818C92.3262 247.776 92.3262 247.712 92.3474 247.649V247.564C92.4321 246.484 92.7497 243.288 93.7238 239.435C94.4437 236.577 95.5237 233.401 97.133 230.458C97.9377 228.998 98.8694 227.6 99.9706 226.351C102.808 223.091 106.704 220.805 112.019 220.805C121.803 220.805 128.96 232.321 131.692 243.796C134.084 253.767 133.11 263.738 127.626 266.131Z" fill="white"/>
<path d="M123.454 267.592C121.654 267.592 119.77 267.189 117.991 266.406C115.471 265.305 113.205 263.527 111.427 261.241C108.653 257.663 107.192 253.048 107.192 247.946C107.192 241.975 104.566 235.243 100.648 234.778C97.8108 234.439 95.3121 237.847 93.7451 244.114C93.4275 245.426 93.1734 246.696 92.9405 248.051L91.6699 247.946V247.818C91.6699 247.776 91.6699 247.67 91.6911 247.564V247.501C91.7758 246.315 92.1146 243.14 93.0887 239.266C93.9569 235.836 95.1215 232.766 96.5615 230.141C97.472 228.511 98.4249 227.114 99.4837 225.928C102.808 222.096 107.022 220.17 112.02 220.17C122.184 220.17 129.532 231.962 132.306 243.648C133.534 248.792 133.873 253.852 133.238 257.896C132.539 262.447 130.675 265.475 127.88 266.703C126.525 267.295 125.021 267.592 123.454 267.592ZM100.267 233.486C100.458 233.486 100.627 233.507 100.797 233.528C105.032 234.037 108.462 240.515 108.462 247.967C108.462 252.794 109.839 257.133 112.443 260.5C114.095 262.617 116.191 264.268 118.499 265.284C121.527 266.597 124.767 266.703 127.372 265.58C132.115 263.506 133.619 254.635 131.078 243.987C129.659 237.995 127.139 232.47 124.005 228.426C120.469 223.875 116.339 221.482 112.02 221.482C107.425 221.482 103.528 223.282 100.458 226.817C99.4625 227.961 98.552 229.252 97.705 230.819C96.6462 232.766 95.7356 234.947 94.9945 237.36C95.3545 236.768 95.7145 236.238 96.0956 235.773C97.5991 233.931 99.1237 233.486 100.267 233.486Z" fill="#3FB1B5"/>
<path d="M125.36 267.168C125.043 267.168 124.767 266.935 124.725 266.597C121.633 237.572 114.582 228.596 109.224 226.182C104.439 224.023 100.394 226.839 100.352 226.86C100.077 227.072 99.6743 226.987 99.4625 226.712C99.2508 226.436 99.3355 226.034 99.6108 225.823C99.8013 225.696 104.291 222.562 109.733 225.018C113.333 226.648 116.467 230.332 119.029 236.005C122.247 243.098 124.577 253.344 125.974 266.449C126.017 266.787 125.763 267.105 125.403 267.147C125.403 267.168 125.381 267.168 125.36 267.168Z" fill="#3FB1B5"/>
<path d="M44.1518 210.325C44.1518 213.819 43.7495 227.177 56.4972 227.791C69.2449 228.405 70.5154 209.161 70.5154 209.161C70.5154 209.161 64.2474 192.14 57.323 190.404C45.6129 187.461 44.1518 210.325 44.1518 210.325Z" fill="#3FB1B5"/>
<path d="M107.827 247.945H92.3262C95.9048 225.526 107.827 233.952 107.827 247.945Z" fill="#3FB1B5"/>
<path opacity="0.4" d="M371.06 83.2818V223.028C371.06 230.543 364.962 236.619 357.466 236.619H197.484C187.447 250.443 166.758 250.507 156.637 236.619L156.615 236.598C152.592 236.323 149.035 234.269 146.748 231.242L150.432 228.066L244.452 146.941L333.982 69.6904H357.466C364.962 69.6904 371.06 75.7875 371.06 83.2818Z" fill="white"/>
<path opacity="0.4" d="M127.626 266.766C124.81 268.036 121.4 267.845 118.245 266.469V284.295H85.2749L111.956 261.283L118.266 255.842L123.073 251.692L132.369 243.796C135.08 255.355 133.576 264.035 127.626 266.766Z" fill="white"/>
<path d="M408.392 360.826V478.661H381.16L363.817 430.244L338.979 360.826H408.392Z" fill="#A0505A"/>
<path d="M338.979 360.826H408.392V398.658L347.237 383.881L338.979 360.826Z" fill="#73325A"/>
<path d="M409.027 479.296H380.716L362.653 428.868L364.135 429.673C364.177 429.694 367.693 431.578 374.85 432.509C381.457 433.377 392.637 433.568 408.244 429.609L409.027 429.419V479.296ZM381.605 478.026H407.757V431.049C392.299 434.881 381.203 434.648 374.575 433.78C369.768 433.145 366.591 432.107 364.919 431.43L381.605 478.026Z" fill="white"/>
<path d="M377.984 442.248C375.93 442.248 374.257 440.575 374.257 438.522C374.257 436.468 375.93 434.796 377.984 434.796C380.038 434.796 381.711 436.468 381.711 438.522C381.711 440.575 380.038 442.248 377.984 442.248ZM377.984 436.066C376.628 436.066 375.527 437.167 375.527 438.522C375.527 439.877 376.628 440.978 377.984 440.978C379.339 440.978 380.44 439.877 380.44 438.522C380.44 437.167 379.339 436.066 377.984 436.066Z" fill="white"/>
<path d="M392.723 452.22C390.669 452.22 388.996 450.547 388.996 448.494C388.996 446.44 390.669 444.768 392.723 444.768C394.777 444.768 396.449 446.44 396.449 448.494C396.449 450.547 394.777 452.22 392.723 452.22ZM392.723 446.038C391.367 446.038 390.266 447.139 390.266 448.494C390.266 449.849 391.367 450.949 392.723 450.949C394.078 450.949 395.179 449.849 395.179 448.494C395.179 447.139 394.078 446.038 392.723 446.038Z" fill="white"/>
<path d="M403.691 441.147C401.637 441.147 399.964 439.475 399.964 437.421C399.964 435.368 401.637 433.695 403.691 433.695C405.745 433.695 407.418 435.368 407.418 437.421C407.418 439.475 405.745 441.147 403.691 441.147ZM403.691 434.966C402.336 434.966 401.234 436.066 401.234 437.421C401.234 438.776 402.336 439.877 403.691 439.877C405.046 439.877 406.147 438.776 406.147 437.421C406.147 436.066 405.046 434.966 403.691 434.966Z" fill="white"/>
<path d="M399.35 463.82C397.296 463.82 395.623 462.148 395.623 460.094C395.623 458.041 397.296 456.368 399.35 456.368C401.404 456.368 403.077 458.041 403.077 460.094C403.077 462.148 401.404 463.82 399.35 463.82ZM399.35 457.638C397.995 457.638 396.894 458.739 396.894 460.094C396.894 461.449 397.995 462.55 399.35 462.55C400.705 462.55 401.806 461.449 401.806 460.094C401.806 458.739 400.705 457.638 399.35 457.638Z" fill="white"/>
<path d="M381.076 458.189C379.022 458.189 377.349 456.517 377.349 454.463C377.349 452.41 379.022 450.737 381.076 450.737C383.13 450.737 384.803 452.41 384.803 454.463C384.803 456.517 383.13 458.189 381.076 458.189ZM381.076 452.008C379.721 452.008 378.62 453.108 378.62 454.463C378.62 455.818 379.721 456.919 381.076 456.919C382.431 456.919 383.532 455.818 383.532 454.463C383.532 453.108 382.431 452.008 381.076 452.008Z" fill="white"/>
<path d="M386.116 475.126C384.062 475.126 382.389 473.453 382.389 471.4C382.389 469.346 384.062 467.674 386.116 467.674C388.17 467.674 389.842 469.346 389.842 471.4C389.842 473.453 388.17 475.126 386.116 475.126ZM386.116 468.944C384.76 468.944 383.659 470.045 383.659 471.4C383.659 472.755 384.76 473.856 386.116 473.856C387.471 473.856 388.572 472.755 388.572 471.4C388.572 470.045 387.471 468.944 386.116 468.944Z" fill="white"/>
<path d="M421.267 500.636L402.59 539.399C399.943 545.644 393.823 549.709 387.026 549.709H363.203C357.105 549.709 353.399 543.527 355.728 537.896L379.678 480.143C381.012 476.629 383.363 473.707 386.306 471.653C389.271 469.6 392.828 468.436 396.576 468.436C401.785 468.436 406.952 471.971 410.383 475.888L418.683 484.843C422.516 489.204 423.511 495.322 421.267 500.636Z" fill="#66B0F0"/>
<path d="M421.267 500.635L402.59 539.398C399.943 545.644 393.823 549.708 387.026 549.708H361.7C359.35 549.708 358.015 548.248 357.232 546.236H362.865C369.662 546.236 375.782 542.172 378.429 535.926L399.964 491.024C401.976 486.832 406.232 484.144 410.891 484.144C416.968 484.144 421.584 488.589 422.431 494.221C422.516 496.38 422.135 498.561 421.267 500.635Z" fill="white"/>
<path d="M387.026 550.344H361.7C359.349 550.344 357.634 549.031 356.639 546.47C356.554 546.279 356.596 546.046 356.702 545.877C356.829 545.707 357.02 545.602 357.232 545.602H362.864C369.408 545.602 375.295 541.706 377.836 535.673C377.836 535.673 377.836 535.652 377.857 535.652L399.392 490.749C401.51 486.346 406.02 483.509 410.891 483.509C417.01 483.509 422.135 487.976 423.067 494.136C423.067 494.157 423.067 494.179 423.067 494.2C423.151 496.486 422.749 498.752 421.86 500.89C421.86 500.89 421.86 500.911 421.838 500.911L403.162 539.653C400.409 546.152 394.077 550.344 387.026 550.344ZM358.227 546.872C359.032 548.375 360.154 549.074 361.7 549.074H387.026C393.569 549.074 399.456 545.178 401.997 539.145C401.997 539.145 401.997 539.123 402.018 539.123L420.695 500.382C421.5 498.434 421.881 496.38 421.796 494.285C420.949 488.78 416.375 484.779 410.891 484.779C406.507 484.779 402.442 487.341 400.536 491.3L379 536.181C376.247 542.68 369.916 546.872 362.864 546.872H358.227Z" fill="#66B0F0"/>
<path d="M416.968 482.98C414.723 481.752 412.013 480.863 409.641 480.863C405.089 480.863 400.875 483.509 398.905 487.616L376.607 534.107C373.77 540.818 367.206 545.158 359.9 545.158H355.792C355.58 544.755 355.432 544.332 355.284 543.887H359.9C366.697 543.887 372.796 539.844 375.443 533.599L375.464 533.577L397.783 487.066C399.964 482.514 404.623 479.593 409.663 479.593C411.272 479.593 413.199 480.122 414.851 480.694L416.968 482.98Z" fill="white"/>
<path d="M338.979 360.826L333.664 430.244L331.292 461.343C331.292 461.343 315.813 478.576 298.194 467.948L290.042 430.265L271.386 344.038C266.346 320.729 282.27 298.056 305.924 294.901L338.979 360.826Z" fill="#A0505A"/>
<path d="M310.116 472.881C306.326 472.881 302.154 471.928 297.877 469.345L297.644 469.197L289.216 429.354L290.232 429.672C310.285 435.684 333.282 429.714 333.515 429.651L334.383 429.418L331.927 462.465L331.779 462.634C331.609 462.804 327.755 467.059 321.636 470.065C318.565 471.547 314.584 472.881 310.116 472.881ZM298.766 468.393C305.796 472.542 313.292 472.711 321.043 468.922C326.294 466.339 329.936 462.698 330.677 461.915L332.964 431.069C331.037 431.514 326.04 432.594 319.581 433.186C312.149 433.885 301.244 434.054 290.868 431.175L298.766 468.393Z" fill="white"/>
<path d="M309.332 450.08C307.278 450.08 305.605 448.407 305.605 446.354C305.605 444.3 307.278 442.628 309.332 442.628C311.386 442.628 313.059 444.3 313.059 446.354C313.059 448.407 311.386 450.08 309.332 450.08ZM309.332 443.898C307.977 443.898 306.876 444.999 306.876 446.354C306.876 447.709 307.977 448.81 309.332 448.81C310.688 448.81 311.789 447.709 311.789 446.354C311.789 444.999 310.688 443.898 309.332 443.898Z" fill="white"/>
<path d="M328.983 445.339C326.929 445.339 325.256 443.666 325.256 441.613C325.256 439.559 326.929 437.887 328.983 437.887C331.037 437.887 332.71 439.559 332.71 441.613C332.71 443.666 331.037 445.339 328.983 445.339ZM328.983 439.157C327.628 439.157 326.527 440.258 326.527 441.613C326.527 442.968 327.628 444.068 328.983 444.068C330.339 444.068 331.44 442.968 331.44 441.613C331.44 440.258 330.339 439.157 328.983 439.157Z" fill="white"/>
<path d="M297.474 441.146C295.42 441.146 293.747 439.474 293.747 437.42C293.747 435.367 295.42 433.694 297.474 433.694C299.528 433.694 301.201 435.367 301.201 437.42C301.201 439.474 299.528 441.146 297.474 441.146ZM297.474 434.965C296.119 434.965 295.018 436.065 295.018 437.42C295.018 438.775 296.119 439.876 297.474 439.876C298.829 439.876 299.93 438.775 299.93 437.42C299.93 436.065 298.829 434.965 297.474 434.965Z" fill="white"/>
<path d="M306.241 466.911C304.187 466.911 302.514 465.238 302.514 463.185C302.514 461.131 304.187 459.459 306.241 459.459C308.295 459.459 309.968 461.131 309.968 463.185C309.968 465.238 308.295 466.911 306.241 466.911ZM306.241 460.729C304.886 460.729 303.785 461.83 303.785 463.185C303.785 464.54 304.886 465.641 306.241 465.641C307.596 465.641 308.697 464.54 308.697 463.185C308.697 461.83 307.596 460.729 306.241 460.729Z" fill="white"/>
<path d="M320.661 460.729C318.607 460.729 316.935 459.057 316.935 457.003C316.935 454.95 318.607 453.277 320.661 453.277C322.715 453.277 324.388 454.95 324.388 457.003C324.388 459.057 322.715 460.729 320.661 460.729ZM320.661 454.548C319.306 454.548 318.205 455.648 318.205 457.003C318.205 458.358 319.306 459.459 320.661 459.459C322.017 459.459 323.118 458.358 323.118 457.003C323.118 455.648 322.017 454.548 320.661 454.548Z" fill="white"/>
<path d="M351.705 468.753L331.292 550.365H324.855C324.558 550.365 324.283 550.344 323.986 550.323C319.116 549.878 315.008 545.771 313.97 540.923L298.173 467.906C315.791 478.555 331.292 461.322 331.292 461.322L351.705 468.753Z" fill="#66B0F0"/>
<path d="M352.743 510.629C357.041 487.934 358.227 470.595 350.816 469.198C343.404 467.801 330.212 482.853 325.913 505.548C321.615 528.242 323.859 548.312 331.271 549.709C338.682 551.128 348.444 533.345 352.743 510.629Z" fill="white"/>
<path d="M332.118 550.429C331.8 550.429 331.461 550.408 331.143 550.344C327.29 549.625 324.6 544.417 323.563 535.694C322.567 527.29 323.181 516.535 325.278 505.442C327.268 494.963 331.313 485.203 336.67 477.963C341.583 471.336 346.919 467.822 350.921 468.584C354.775 469.304 356.681 473.665 356.787 481.922C356.872 488.654 355.749 498.075 353.357 510.756C351.663 519.69 349.1 528.094 345.945 535.059C342.832 541.94 339.423 546.767 336.098 549.032C334.743 549.942 333.409 550.429 332.118 550.429ZM349.82 469.749C346.432 469.749 341.879 473.093 337.708 478.725C332.456 485.817 328.496 495.386 326.527 505.675C324.452 516.662 323.838 527.269 324.812 535.546C325.765 543.549 328.158 548.481 331.376 549.095C332.605 549.328 333.96 548.947 335.4 547.973C341.901 543.549 348.783 528.158 352.107 510.523C354.5 497.948 355.601 488.59 355.516 481.943C355.432 474.491 353.801 470.426 350.688 469.833C350.413 469.77 350.117 469.749 349.82 469.749Z" fill="#66B0F0"/>
<path d="M322.948 505.188C320.725 516.958 320.069 528.327 321.127 537.218C321.89 543.612 323.499 548.164 325.701 550.365H324.854C324.558 550.365 324.282 550.344 323.986 550.323C321.996 547.698 320.577 543.294 319.857 537.367C318.777 528.369 319.433 516.852 321.699 504.955C323.838 493.692 328.158 483.128 333.896 475.189C337.327 470.447 340.926 467.123 344.209 465.62L346.114 466.255C338.555 468.499 327.078 483.403 322.948 505.188Z" fill="white"/>
<path d="M305.924 294.881L402.527 284.931L499.088 312.008L498.262 324.837C496.949 345.076 479.5 360.827 459.214 360.827H339.001L305.924 294.881Z" fill="#FE5244"/>
<path d="M454.957 352.572H334.744C334.384 352.572 334.108 352.296 334.108 351.936C334.108 351.577 334.384 351.301 334.744 351.301H454.957C464.147 351.301 473.782 346.453 481.406 337.964C488.626 329.919 492.946 319.863 492.946 311.077C492.946 310.718 493.222 310.442 493.582 310.442C493.942 310.442 494.217 310.718 494.217 311.077C494.217 320.181 489.77 330.554 482.358 338.832C474.481 347.554 464.507 352.572 454.957 352.572Z" fill="white"/>
<path d="M445.492 341.986H329.874C329.514 341.986 329.238 341.711 329.238 341.351C329.238 340.991 329.514 340.716 329.874 340.716H445.492C453.518 340.716 461.818 336.947 468.828 330.088C475.413 323.652 480.029 315.353 481.491 307.309C481.554 306.97 481.893 306.737 482.232 306.8C482.571 306.864 482.803 307.203 482.74 307.541C479.754 323.822 463.724 341.986 445.492 341.986Z" fill="white"/>
<path d="M435.306 331.188H323.732C323.372 331.188 323.097 330.913 323.097 330.553C323.097 330.193 323.372 329.918 323.732 329.918H435.306C450.553 329.918 463.788 316.2 468.51 303.307C468.637 302.968 468.997 302.799 469.314 302.926C469.653 303.053 469.823 303.413 469.696 303.73C467.07 310.907 462.326 317.661 456.313 322.741C449.769 328.267 442.506 331.188 435.306 331.188Z" fill="white"/>
<path d="M429.801 319.545H318.227C317.867 319.545 317.592 319.27 317.592 318.91C317.592 318.55 317.867 318.275 318.227 318.275H429.801C440.304 318.275 451.315 311.437 458.557 300.45C458.748 300.153 459.15 300.068 459.447 300.259C459.743 300.449 459.828 300.852 459.637 301.148C452.141 312.495 440.728 319.545 429.801 319.545Z" fill="white"/>
<path d="M424.507 308.96H312.933C312.573 308.96 312.298 308.684 312.298 308.324C312.298 307.965 312.573 307.689 312.933 307.689H424.507C432.596 307.689 440.749 303.963 447.462 297.21C447.716 296.956 448.118 296.956 448.351 297.21C448.605 297.464 448.605 297.866 448.351 298.099C441.405 305.107 432.935 308.96 424.507 308.96Z" fill="white"/>
<path d="M418.79 298.163H307.216C306.856 298.163 306.581 297.888 306.581 297.528C306.581 297.168 306.856 296.893 307.216 296.893H418.79C423.554 296.893 428.34 295.538 433.041 292.891C433.337 292.722 433.74 292.828 433.909 293.124C434.079 293.421 433.973 293.823 433.676 293.992C428.785 296.766 423.766 298.163 418.79 298.163Z" fill="white"/>
<path d="M338.768 361.463C338.535 361.463 338.302 361.336 338.196 361.103L305.141 295.157C304.992 294.839 305.12 294.458 305.416 294.31C305.734 294.162 306.115 294.289 306.263 294.585L339.318 360.531C339.466 360.849 339.339 361.23 339.043 361.378C338.958 361.442 338.873 361.463 338.768 361.463Z" fill="white"/>
<path d="M504.381 223.643C495.276 226.225 486.318 225.463 485.365 222.69C484.476 220.044 488.499 215.513 496.652 212.507C497.054 212.359 497.478 212.211 497.901 212.062C500.358 211.237 502.814 210.707 505.122 210.432C511.962 209.564 517.531 210.792 518.23 212.867C519.183 215.64 514.016 220.912 504.381 223.643Z" fill="white"/>
<path d="M493.539 225.865C488.923 225.865 485.429 224.827 484.751 222.901C483.608 219.514 488.626 214.793 496.419 211.913C496.821 211.765 497.245 211.617 497.668 211.469H497.69C500.082 210.664 502.56 210.114 505.037 209.818C512.047 208.928 517.976 210.156 518.823 212.676C519.119 213.501 518.971 214.517 518.42 215.576C516.642 218.963 511.2 222.393 504.55 224.277C500.718 225.335 496.843 225.865 493.539 225.865ZM509.463 210.791C508.171 210.791 506.753 210.876 505.207 211.067C502.814 211.363 500.421 211.892 498.113 212.676C497.69 212.824 497.266 212.972 496.885 213.12C493.2 214.475 490.066 216.275 488.076 218.201C486.403 219.81 485.62 221.419 485.98 222.499C486.678 224.552 494.831 225.695 504.212 223.049C509.4 221.588 515.456 218.519 517.298 214.983C517.679 214.242 517.806 213.586 517.637 213.078C517.256 211.956 514.249 210.791 509.463 210.791Z" fill="#3FB1B5"/>
<path d="M498.621 285.374H495.127L485.958 223.493V223.451L485.725 221.906C486.17 219.09 490.574 215.11 498.346 212.527C502.221 211.236 506.075 210.664 509.357 210.601L512.703 219.767L513.02 220.635L523.608 249.66C529.961 266.999 517.107 285.374 498.621 285.374Z" fill="#A0505A"/>
<path d="M512.914 220.424C510.691 221.821 507.811 223.112 504.381 224.086C496.503 226.309 488.52 225.399 485.958 223.493V223.451L485.725 221.906C486.17 219.09 490.574 215.11 498.346 212.527C502.221 211.236 506.075 210.664 509.357 210.601L512.914 220.424Z" fill="#73325A"/>
<path d="M385.205 234.46L374.088 262.109C368.603 275.764 355.347 284.719 340.609 284.719H191.173V271.043C191.173 267.74 193.206 264.776 196.298 263.612L211.65 257.79C213.048 257.261 214.509 256.985 215.991 256.985H233.419L332.054 247.035L349.079 208.061L385.205 234.46Z" fill="#A0505A"/>
<path d="M191.809 276.822C191.449 276.822 191.173 276.547 191.173 276.187C191.173 273.414 192.846 270.979 195.451 269.984L207.034 265.602C207.351 265.475 207.733 265.644 207.86 265.962C207.987 266.279 207.817 266.661 207.5 266.788L195.917 271.17C193.82 271.974 192.444 273.943 192.444 276.187C192.444 276.547 192.169 276.822 191.809 276.822Z" fill="#73325A"/>
<path d="M191.809 283.808C191.449 283.808 191.173 283.532 191.173 283.173C191.173 280.399 192.846 277.965 195.451 276.97L207.034 272.587C207.351 272.46 207.733 272.63 207.86 272.947C207.987 273.265 207.817 273.646 207.5 273.773L195.917 278.155C193.82 278.96 192.444 280.928 192.444 283.173C192.444 283.532 192.169 283.808 191.809 283.808Z" fill="#73325A"/>
<path d="M195.683 284.719C195.429 284.719 195.175 284.55 195.091 284.296C194.963 283.957 195.133 283.597 195.472 283.491L207.055 279.32C207.394 279.193 207.754 279.363 207.859 279.702C207.986 280.04 207.817 280.4 207.478 280.506L195.895 284.677C195.832 284.698 195.747 284.719 195.683 284.719Z" fill="#73325A"/>
<path d="M206.06 260.139C206.06 260.139 216.901 232.47 220.374 232.936C223.847 233.401 210.761 258.361 210.761 258.361L206.06 260.139Z" fill="#FE5244"/>
<path d="M349.079 208.082L346.581 213.777L378.577 250.931L385.205 234.46L349.079 208.082Z" fill="#73325A"/>
<path d="M485.958 223.515L499.087 312.008L402.548 284.931L385.205 234.439L340.44 201.731L356.152 183.016C370.17 166.313 390.859 156.659 412.67 156.659H443.692C470.67 156.659 495.509 171.394 508.447 195.062L518.505 212.464C518.505 212.464 515.477 208.019 499.151 212.486C484.773 216.444 485.958 223.515 485.958 223.515Z" fill="#3FB1B5"/>
<path d="M385.205 234.672C385.163 234.672 385.099 234.672 385.057 234.65C384.718 234.566 384.506 234.227 384.591 233.888L389.61 212.125C389.694 211.786 390.033 211.575 390.372 211.659C390.711 211.744 390.922 212.083 390.838 212.421L385.819 234.185C385.756 234.481 385.502 234.672 385.205 234.672Z" fill="white"/>
<path d="M496.652 291.98C496.355 291.98 496.08 291.769 496.017 291.451L479.69 189.981C479.627 189.642 479.86 189.304 480.22 189.261C480.558 189.198 480.897 189.431 480.939 189.791L497.266 291.26C497.329 291.599 497.097 291.938 496.737 291.98C496.715 291.98 496.694 291.98 496.652 291.98Z" fill="white"/>
<path d="M498.876 312.643C498.812 312.643 498.77 312.643 498.706 312.622L402.357 285.142C402.019 285.037 401.828 284.698 401.913 284.359C402.018 284.02 402.357 283.83 402.696 283.915L499.045 311.394C499.384 311.5 499.574 311.838 499.49 312.177C499.405 312.452 499.151 312.643 498.876 312.643Z" fill="white"/>
<path d="M407.735 142.517V156.744L432.85 156.532V131.424L407.735 142.517Z" fill="#A0505A"/>
<path d="M434.883 127.041V127.422C434.883 131.233 432.003 134.324 428.191 134.324H426.709C425.756 138.092 417.286 142.496 411.272 142.496H404.263C396.597 142.496 390.732 135.615 391.981 128.036L392.32 125.983L390.245 124.818C389.059 124.141 388.72 122.596 389.546 121.495L394.035 115.567L395.009 109.724C395.793 104.918 398.948 101.002 403.14 99.0752C404.792 117.684 421.224 119.886 425.565 120.14H427.979C431.791 120.14 434.883 123.231 434.883 127.041Z" fill="#A0505A"/>
<path d="M423.766 129.497C423.406 129.497 423.13 129.222 423.13 128.862C423.13 125.517 425.862 122.786 429.208 122.786C429.568 122.786 429.843 123.061 429.843 123.421C429.843 123.781 429.568 124.056 429.208 124.056C426.561 124.056 424.401 126.216 424.401 128.862C424.401 129.222 424.126 129.497 423.766 129.497Z" fill="#73325A"/>
<path d="M400.811 120.33C401.408 120.33 401.891 119.212 401.891 117.832C401.891 116.452 401.408 115.334 400.811 115.334C400.215 115.334 399.731 116.452 399.731 117.832C399.731 119.212 400.215 120.33 400.811 120.33Z" fill="#73325A"/>
<path d="M405.216 114.678C405.025 114.678 404.834 114.593 404.707 114.424C401.891 110.529 399.265 110.74 399.223 110.74C398.863 110.783 398.566 110.529 398.524 110.169C398.482 109.83 398.736 109.512 399.096 109.47C399.223 109.449 402.484 109.195 405.724 113.662C405.936 113.937 405.872 114.339 405.576 114.551C405.47 114.636 405.343 114.678 405.216 114.678Z" fill="#73325A"/>
<path d="M425.566 120.14H427.98C431.791 120.14 434.883 123.231 434.883 127.042V127.423C434.883 131.233 432.003 134.324 428.191 134.324L426.561 135.467C419.7 139.871 410.213 157.188 412.543 169.446C415.168 183.228 427.175 186.298 438.271 184.181C449.367 182.064 457.456 175.607 454.83 161.803C454.534 160.173 454.047 158.543 453.433 156.934C453.623 156.998 453.793 157.061 453.983 157.125C467.324 160.766 482.994 161.19 487.314 150.774C491.633 140.358 490.659 130.048 477.679 124.671C470.14 121.537 459.891 121.559 451.95 123.718C455.953 109.809 448.838 94.3334 435.772 92.7879C415.253 90.3533 403.479 98.8215 403.162 99.0544C403.141 101.51 404.813 118.933 425.566 120.14Z" fill="#73325A"/>
<path d="M453.983 157.781C453.687 157.781 453.411 157.57 453.369 157.273C451.124 145.524 441.511 139.045 441.405 138.982C441.235 138.876 441.129 138.664 441.129 138.453C441.129 138.241 441.235 138.05 441.405 137.923C447.969 133.287 450.807 126.597 451.908 123.041C452.014 122.702 452.374 122.511 452.691 122.617C453.03 122.723 453.221 123.083 453.115 123.4C452.014 126.999 449.219 133.605 442.845 138.431C445.238 140.231 452.628 146.54 454.618 157.019C454.682 157.358 454.449 157.697 454.11 157.76C454.068 157.781 454.025 157.781 453.983 157.781Z" fill="white"/>
<path d="M458.24 123.4H452.628C452.268 123.4 451.993 123.125 451.993 122.765V117.155C451.993 113.874 454.661 111.206 457.944 111.206H458.24C461.522 111.206 464.19 113.874 464.19 117.155V117.451C464.212 119.018 463.597 120.521 462.475 121.643C461.353 122.765 459.849 123.4 458.24 123.4ZM453.264 122.13H458.24C459.511 122.13 460.675 121.643 461.565 120.733C462.433 119.844 462.92 118.679 462.92 117.451V117.155C462.92 114.572 460.823 112.476 458.24 112.476H457.944C455.36 112.476 453.264 114.572 453.264 117.155V122.13Z" fill="#FE5244"/>
<path d="M461.374 131.995C459.108 131.995 456.927 130.894 455.635 128.862L452.035 123.146C451.845 122.85 451.929 122.447 452.226 122.278L457.943 118.679C459.468 117.726 461.289 117.409 463.047 117.811C464.804 118.213 466.308 119.272 467.282 120.796L467.621 121.325C468.595 122.85 468.891 124.67 468.489 126.427C468.087 128.185 467.028 129.688 465.503 130.662L464.974 131C463.873 131.657 462.623 131.995 461.374 131.995ZM453.454 122.998L456.715 128.185C458.325 130.725 461.734 131.487 464.317 129.878L464.847 129.54C466.096 128.756 466.943 127.55 467.261 126.11C467.578 124.67 467.324 123.21 466.541 121.961L466.202 121.431C465.418 120.182 464.211 119.335 462.771 119.018C461.331 118.7 459.87 118.954 458.621 119.738L453.454 122.998Z" fill="#FE5244"/>
<path d="M426.688 148.932C426.54 148.932 426.391 148.932 426.243 148.911C424.655 148.784 423.215 148.064 422.177 146.858L421.987 146.625C420.949 145.439 420.441 143.915 420.547 142.348C420.653 140.76 421.373 139.3 422.58 138.262L426.561 134.452C426.688 134.325 426.857 134.261 427.027 134.282C427.196 134.282 427.365 134.367 427.471 134.494L431.389 138.919C432.426 140.125 432.956 141.671 432.829 143.259C432.702 144.846 431.982 146.286 430.775 147.323L430.521 147.514C429.483 148.424 428.128 148.932 426.688 148.932ZM426.984 135.807L423.469 139.173L423.448 139.194C422.495 140.02 421.923 141.163 421.839 142.433C421.754 143.682 422.156 144.868 422.961 145.799C422.961 145.799 422.961 145.82 422.982 145.82L423.173 146.053C423.977 146.985 425.1 147.556 426.349 147.662C427.598 147.747 428.805 147.344 429.758 146.54L430.012 146.328C430.944 145.524 431.516 144.402 431.622 143.153C431.706 141.904 431.304 140.697 430.499 139.744L426.984 135.807Z" fill="#FE5244"/>
<path d="M434.798 146.604C431.834 146.604 429.102 144.635 428.255 141.65L426.455 135.151C426.37 134.812 426.561 134.473 426.9 134.367L433.401 132.568C435.137 132.081 436.958 132.314 438.525 133.182C440.092 134.071 441.236 135.51 441.723 137.246L441.892 137.86C442.379 139.596 442.146 141.417 441.278 142.984C440.389 144.55 438.949 145.693 437.212 146.18L436.598 146.35C435.984 146.54 435.391 146.604 434.798 146.604ZM429.483 141.311C430.309 144.212 433.337 145.948 436.238 145.143L436.852 144.974C438.271 144.571 439.436 143.661 440.156 142.391C440.876 141.121 441.045 139.639 440.664 138.22L440.494 137.606C440.092 136.188 439.182 135.024 437.911 134.304C436.641 133.584 435.158 133.415 433.739 133.796L427.853 135.426L429.483 141.311Z" fill="#FE5244"/>
<path d="M334.193 550.344C334.15 550.344 334.108 550.344 334.066 550.323C333.727 550.26 333.494 549.921 333.579 549.561L370.466 376.958C370.53 376.62 370.869 376.387 371.229 376.472C371.568 376.535 371.8 376.874 371.716 377.234L334.807 549.836C334.743 550.132 334.489 550.344 334.193 550.344Z" fill="#FFCF2D"/>
<path d="M502.369 550.345C502.073 550.345 501.818 550.133 501.755 549.837L464.867 377.234C464.804 376.896 465.015 376.557 465.354 376.472C465.693 376.409 466.032 376.62 466.117 376.959L503.004 549.561C503.068 549.9 502.856 550.239 502.517 550.324C502.454 550.345 502.411 550.345 502.369 550.345Z" fill="#FFCF2D"/>
<path d="M493.687 512.026H342.367C342.007 512.026 341.731 511.751 341.731 511.391C341.731 511.031 342.007 510.756 342.367 510.756H493.687C494.047 510.756 494.322 511.031 494.322 511.391C494.322 511.751 494.047 512.026 493.687 512.026Z" fill="#FFCF2D"/>
<path d="M494.512 377.106H342.027C340.1 377.106 338.533 375.54 338.533 373.613V364.319C338.533 362.393 340.1 360.826 342.027 360.826H494.512C496.439 360.826 498.006 362.393 498.006 364.319V373.613C498.006 375.54 496.439 377.106 494.512 377.106Z" fill="white"/>
<path d="M494.512 377.742H342.027C339.74 377.742 337.898 375.9 337.898 373.614V364.32C337.898 362.033 339.74 360.191 342.027 360.191H494.512C496.799 360.191 498.642 362.033 498.642 364.32V373.614C498.642 375.9 496.799 377.742 494.512 377.742ZM342.027 361.462C340.46 361.462 339.168 362.753 339.168 364.32V373.614C339.168 375.18 340.46 376.472 342.027 376.472H494.512C496.079 376.472 497.371 375.18 497.371 373.614V364.32C497.371 362.753 496.079 361.462 494.512 361.462H342.027Z" fill="#66B0F0"/>
</svg>
