<svg width="144" height="106" viewBox="0 0 144 106" fill="none" xmlns="http://www.w3.org/2000/svg">
<path d="M4.59261 31.1023C4.59261 32.2669 3.71829 33.1402 2.55253 33.1402C1.38677 33.1402 0.512451 32.2669 0.512451 31.1023C0.512451 29.9378 1.38677 29.0645 2.55253 29.0645C3.71829 29.0645 4.59261 30.0349 4.59261 31.1023Z" fill="#FFCF2D"/>
<path d="M21.9818 31.1023C21.9818 32.2669 21.1075 33.1402 19.9417 33.1402C18.7759 33.1402 17.9016 32.2669 17.9016 31.1023C17.9016 29.9378 18.7759 29.0645 19.9417 29.0645C21.0103 29.0645 21.9818 30.0349 21.9818 31.1023Z" fill="#FFCF2D"/>
<path d="M39.274 31.1023C39.274 32.2669 38.3997 33.1402 37.2339 33.1402C36.0682 33.1402 35.1938 32.2669 35.1938 31.1023C35.1938 29.9378 36.0682 29.0645 37.2339 29.0645C38.3997 29.0645 39.274 30.0349 39.274 31.1023Z" fill="#FFCF2D"/>
<path d="M56.6634 31.1023C56.6634 32.2669 55.7891 33.1402 54.6233 33.1402C53.4576 33.1402 52.5833 32.2669 52.5833 31.1023C52.5833 29.9378 53.4576 29.0645 54.6233 29.0645C55.7891 29.0645 56.6634 30.0349 56.6634 31.1023Z" fill="#FFCF2D"/>
<path d="M74.0526 31.1023C74.0526 32.2669 73.1782 33.1402 72.0125 33.1402C70.8467 33.1402 69.9724 32.2669 69.9724 31.1023C69.9724 29.9378 70.8467 29.0645 72.0125 29.0645C73.0811 29.0645 74.0526 30.0349 74.0526 31.1023Z" fill="#FFCF2D"/>
<path d="M91.4417 31.1023C91.4417 32.2669 90.5674 33.1402 89.4016 33.1402C88.2359 33.1402 87.3616 32.2669 87.3616 31.1023C87.3616 29.9378 88.2359 29.0645 89.4016 29.0645C90.5674 29.0645 91.4417 30.0349 91.4417 31.1023Z" fill="#FFCF2D"/>
<path d="M108.734 31.1023C108.734 32.2669 107.86 33.1402 106.694 33.1402C105.528 33.1402 104.654 32.2669 104.654 31.1023C104.654 29.9378 105.528 29.0645 106.694 29.0645C107.86 29.0645 108.734 30.0349 108.734 31.1023Z" fill="#FFCF2D"/>
<path d="M126.123 31.1023C126.123 32.2669 125.249 33.1402 124.083 33.1402C122.918 33.1402 122.043 32.2669 122.043 31.1023C122.043 29.9378 122.918 29.0645 124.083 29.0645C125.249 29.0645 126.123 30.0349 126.123 31.1023Z" fill="#FFCF2D"/>
<path d="M143.513 31.1023C143.513 32.2669 142.638 33.1402 141.472 33.1402C140.307 33.1402 139.432 32.2669 139.432 31.1023C139.432 29.9378 140.307 29.0645 141.472 29.0645C142.541 29.0645 143.513 30.0349 143.513 31.1023Z" fill="#FFCF2D"/>
<path d="M4.59261 45.5613C4.59261 46.7258 3.71829 47.5992 2.55253 47.5992C1.38677 47.5992 0.512451 46.7258 0.512451 45.5613C0.512451 44.3968 1.38677 43.5234 2.55253 43.5234C3.71829 43.5234 4.59261 44.3968 4.59261 45.5613Z" fill="#FFCF2D"/>
<path d="M21.9818 45.5613C21.9818 46.7258 21.1075 47.5992 19.9417 47.5992C18.7759 47.5992 17.9016 46.7258 17.9016 45.5613C17.9016 44.3968 18.7759 43.5234 19.9417 43.5234C21.0103 43.5234 21.9818 44.3968 21.9818 45.5613Z" fill="#FFCF2D"/>
<path d="M39.274 45.5613C39.274 46.7258 38.3997 47.5992 37.2339 47.5992C36.0682 47.5992 35.1938 46.7258 35.1938 45.5613C35.1938 44.3968 36.0682 43.5234 37.2339 43.5234C38.3997 43.5234 39.274 44.3968 39.274 45.5613Z" fill="#FFCF2D"/>
<path d="M56.6634 45.5613C56.6634 46.7258 55.7891 47.5992 54.6233 47.5992C53.4576 47.5992 52.5833 46.7258 52.5833 45.5613C52.5833 44.3968 53.4576 43.5234 54.6233 43.5234C55.7891 43.5234 56.6634 44.3968 56.6634 45.5613Z" fill="#FFCF2D"/>
<path d="M74.0526 45.5613C74.0526 46.7258 73.1782 47.5992 72.0125 47.5992C70.8467 47.5992 69.9724 46.7258 69.9724 45.5613C69.9724 44.3968 70.8467 43.5234 72.0125 43.5234C73.0811 43.5234 74.0526 44.3968 74.0526 45.5613Z" fill="#FFCF2D"/>
<path d="M91.4417 45.5613C91.4417 46.7258 90.5674 47.5992 89.4016 47.5992C88.2359 47.5992 87.3616 46.7258 87.3616 45.5613C87.3616 44.3968 88.2359 43.5234 89.4016 43.5234C90.5674 43.5234 91.4417 44.3968 91.4417 45.5613Z" fill="#FFCF2D"/>
<path d="M108.734 45.5613C108.734 46.7258 107.86 47.5992 106.694 47.5992C105.528 47.5992 104.654 46.7258 104.654 45.5613C104.654 44.3968 105.528 43.5234 106.694 43.5234C107.86 43.5234 108.734 44.3968 108.734 45.5613Z" fill="#FFCF2D"/>
<path d="M126.123 45.5613C126.123 46.7258 125.249 47.5992 124.083 47.5992C122.918 47.5992 122.043 46.7258 122.043 45.5613C122.043 44.3968 122.918 43.5234 124.083 43.5234C125.249 43.5234 126.123 44.3968 126.123 45.5613Z" fill="#FFCF2D"/>
<path d="M143.513 45.5613C143.513 46.7258 142.638 47.5992 141.472 47.5992C140.307 47.5992 139.432 46.7258 139.432 45.5613C139.432 44.3968 140.307 43.5234 141.472 43.5234C142.541 43.5234 143.513 44.3968 143.513 45.5613Z" fill="#FFCF2D"/>
<path d="M4.59261 2.28008C4.59261 3.44459 3.71829 4.31797 2.55253 4.31797C1.38677 4.31797 0.512451 3.44459 0.512451 2.28008C0.512451 1.11557 1.38677 0.242188 2.55253 0.242188C3.71829 0.242188 4.59261 1.11557 4.59261 2.28008Z" fill="#FFCF2D"/>
<path d="M21.9818 2.28008C21.9818 3.44459 21.1075 4.31797 19.9417 4.31797C18.7759 4.31797 17.9016 3.44459 17.9016 2.28008C17.9016 1.11557 18.7759 0.242188 19.9417 0.242188C21.0103 0.242188 21.9818 1.11557 21.9818 2.28008Z" fill="#FFCF2D"/>
<path d="M39.274 2.28008C39.274 3.44459 38.3997 4.31797 37.2339 4.31797C36.0682 4.31797 35.1938 3.44459 35.1938 2.28008C35.1938 1.11557 36.1653 0.242188 37.2339 0.242188C38.3997 0.242188 39.274 1.11557 39.274 2.28008Z" fill="#FFCF2D"/>
<path d="M56.6634 2.28008C56.6634 3.44459 55.7891 4.31797 54.6233 4.31797C53.4576 4.31797 52.5833 3.44459 52.5833 2.28008C52.5833 1.11557 53.5547 0.242188 54.6233 0.242188C55.6919 0.242188 56.6634 1.11557 56.6634 2.28008Z" fill="#FFCF2D"/>
<path d="M74.0526 2.28008C74.0526 3.44459 73.1782 4.31797 72.0125 4.31797C70.8467 4.31797 69.9724 3.44459 69.9724 2.28008C69.9724 1.11557 70.8467 0.242188 72.0125 0.242188C73.0811 0.242188 74.0526 1.11557 74.0526 2.28008Z" fill="#FFCF2D"/>
<path d="M91.4417 2.28008C91.4417 3.44459 90.5674 4.31797 89.4016 4.31797C88.2359 4.31797 87.3616 3.44459 87.3616 2.28008C87.3616 1.11557 88.2359 0.242188 89.4016 0.242188C90.5674 0.242188 91.4417 1.11557 91.4417 2.28008Z" fill="#FFCF2D"/>
<path d="M108.734 2.28008C108.734 3.44459 107.86 4.31797 106.694 4.31797C105.528 4.31797 104.654 3.44459 104.654 2.28008C104.654 1.11557 105.528 0.242188 106.694 0.242188C107.86 0.242188 108.734 1.11557 108.734 2.28008Z" fill="#FFCF2D"/>
<path d="M126.123 2.28008C126.123 3.44459 125.249 4.31797 124.083 4.31797C122.918 4.31797 122.043 3.44459 122.043 2.28008C122.043 1.11557 122.918 0.242188 124.083 0.242188C125.249 0.242188 126.123 1.11557 126.123 2.28008Z" fill="#FFCF2D"/>
<path d="M143.513 2.28008C143.513 3.44459 142.638 4.31797 141.472 4.31797C140.307 4.31797 139.432 3.44459 139.432 2.28008C139.432 1.11557 140.307 0.242188 141.472 0.242188C142.541 0.242188 143.513 1.11557 143.513 2.28008Z" fill="#FFCF2D"/>
<path d="M4.59261 16.7391C4.59261 17.9036 3.71829 18.777 2.55253 18.777C1.38677 18.777 0.512451 17.8065 0.512451 16.7391C0.512451 15.5746 1.38677 14.7012 2.55253 14.7012C3.71829 14.7012 4.59261 15.5746 4.59261 16.7391Z" fill="#FFCF2D"/>
<path d="M21.9818 16.7391C21.9818 17.9036 21.1075 18.777 19.9417 18.777C18.7759 18.777 17.9016 17.9036 17.9016 16.7391C17.9016 15.5746 18.7759 14.7012 19.9417 14.7012C21.0103 14.7012 21.9818 15.5746 21.9818 16.7391Z" fill="#FFCF2D"/>
<path d="M39.274 16.7391C39.274 17.9036 38.3997 18.777 37.2339 18.777C36.0682 18.777 35.1938 17.9036 35.1938 16.7391C35.1938 15.5746 36.0682 14.7012 37.2339 14.7012C38.3997 14.7012 39.274 15.5746 39.274 16.7391Z" fill="#FFCF2D"/>
<path d="M56.6634 16.7391C56.6634 17.9036 55.7891 18.777 54.6233 18.777C53.4576 18.777 52.5833 17.9036 52.5833 16.7391C52.5833 15.5746 53.4576 14.7012 54.6233 14.7012C55.7891 14.7012 56.6634 15.5746 56.6634 16.7391Z" fill="#FFCF2D"/>
<path d="M74.0526 16.7391C74.0526 17.9036 73.1782 18.777 72.0125 18.777C70.8467 18.777 69.9724 17.9036 69.9724 16.7391C69.9724 15.5746 70.8467 14.7012 72.0125 14.7012C73.0811 14.7012 74.0526 15.5746 74.0526 16.7391Z" fill="#FFCF2D"/>
<path d="M91.4417 16.7391C91.4417 17.9036 90.5674 18.777 89.4016 18.777C88.2359 18.777 87.3616 17.9036 87.3616 16.7391C87.3616 15.5746 88.2359 14.7012 89.4016 14.7012C90.5674 14.7012 91.4417 15.5746 91.4417 16.7391Z" fill="#FFCF2D"/>
<path d="M108.734 16.7391C108.734 17.9036 107.86 18.777 106.694 18.777C105.528 18.777 104.654 17.9036 104.654 16.7391C104.654 15.5746 105.528 14.7012 106.694 14.7012C107.86 14.7012 108.734 15.5746 108.734 16.7391Z" fill="#FFCF2D"/>
<path d="M126.123 16.7391C126.123 17.9036 125.249 18.777 124.083 18.777C122.918 18.777 122.043 17.9036 122.043 16.7391C122.043 15.5746 122.918 14.7012 124.083 14.7012C125.249 14.7012 126.123 15.5746 126.123 16.7391Z" fill="#FFCF2D"/>
<path d="M143.513 16.7391C143.513 17.9036 142.638 18.777 141.472 18.777C140.307 18.777 139.432 17.9036 139.432 16.7391C139.432 15.5746 140.307 14.7012 141.472 14.7012C142.541 14.7012 143.513 15.5746 143.513 16.7391Z" fill="#FFCF2D"/>
<path d="M4.59261 59.9227C4.59261 61.0872 3.71829 61.9606 2.55253 61.9606C1.38677 61.9606 0.512451 61.0872 0.512451 59.9227C0.512451 58.7581 1.38677 57.8848 2.55253 57.8848C3.71829 57.8848 4.59261 58.8552 4.59261 59.9227Z" fill="#FFCF2D"/>
<path d="M21.9818 59.9227C21.9818 61.0872 21.1075 61.9606 19.9417 61.9606C18.7759 61.9606 17.9016 61.0872 17.9016 59.9227C17.9016 58.7581 18.7759 57.8848 19.9417 57.8848C21.0103 57.8848 21.9818 58.8552 21.9818 59.9227Z" fill="#FFCF2D"/>
<path d="M39.274 59.9227C39.274 61.0872 38.3997 61.9606 37.2339 61.9606C36.0682 61.9606 35.1938 61.0872 35.1938 59.9227C35.1938 58.7581 36.0682 57.8848 37.2339 57.8848C38.3997 57.8848 39.274 58.8552 39.274 59.9227Z" fill="#FFCF2D"/>
<path d="M56.6634 59.9227C56.6634 61.0872 55.7891 61.9606 54.6233 61.9606C53.4576 61.9606 52.5833 61.0872 52.5833 59.9227C52.5833 58.7581 53.4576 57.8848 54.6233 57.8848C55.7891 57.8848 56.6634 58.8552 56.6634 59.9227Z" fill="#FFCF2D"/>
<path d="M74.0526 59.9227C74.0526 61.0872 73.1782 61.9606 72.0125 61.9606C70.8467 61.9606 69.9724 61.0872 69.9724 59.9227C69.9724 58.7581 70.8467 57.8848 72.0125 57.8848C73.0811 57.8848 74.0526 58.8552 74.0526 59.9227Z" fill="#FFCF2D"/>
<path d="M91.4417 59.9227C91.4417 61.0872 90.5674 61.9606 89.4016 61.9606C88.2359 61.9606 87.3616 61.0872 87.3616 59.9227C87.3616 58.7581 88.2359 57.8848 89.4016 57.8848C90.5674 57.8848 91.4417 58.8552 91.4417 59.9227Z" fill="#FFCF2D"/>
<path d="M108.734 59.9227C108.734 61.0872 107.86 61.9606 106.694 61.9606C105.528 61.9606 104.654 61.0872 104.654 59.9227C104.654 58.7581 105.528 57.8848 106.694 57.8848C107.86 57.8848 108.734 58.8552 108.734 59.9227Z" fill="#FFCF2D"/>
<path d="M126.123 59.9227C126.123 61.0872 125.249 61.9606 124.083 61.9606C122.918 61.9606 122.043 61.0872 122.043 59.9227C122.043 58.7581 122.918 57.8848 124.083 57.8848C125.249 57.8848 126.123 58.8552 126.123 59.9227Z" fill="#FFCF2D"/>
<path d="M143.513 59.9227C143.513 61.0872 142.638 61.9606 141.472 61.9606C140.307 61.9606 139.432 61.0872 139.432 59.9227C139.432 58.7581 140.307 57.8848 141.472 57.8848C142.541 57.8848 143.513 58.8552 143.513 59.9227Z" fill="#FFCF2D"/>
<path d="M4.59261 74.3816C4.59261 75.5462 3.71829 76.4195 2.55253 76.4195C1.38677 76.4195 0.512451 75.5462 0.512451 74.3816C0.512451 73.2171 1.38677 72.3438 2.55253 72.3438C3.71829 72.3438 4.59261 73.2171 4.59261 74.3816Z" fill="#FFCF2D"/>
<path d="M21.9818 74.3816C21.9818 75.5462 21.1075 76.4195 19.9417 76.4195C18.7759 76.4195 17.9016 75.5462 17.9016 74.3816C17.9016 73.2171 18.7759 72.3438 19.9417 72.3438C21.0103 72.3438 21.9818 73.2171 21.9818 74.3816Z" fill="#FFCF2D"/>
<path d="M39.274 74.3816C39.274 75.5462 38.3997 76.4195 37.2339 76.4195C36.0682 76.4195 35.1938 75.5462 35.1938 74.3816C35.1938 73.2171 36.0682 72.3438 37.2339 72.3438C38.3997 72.3438 39.274 73.2171 39.274 74.3816Z" fill="#FFCF2D"/>
<path d="M54.6233 76.4195C55.75 76.4195 56.6634 75.5071 56.6634 74.3816C56.6634 73.2561 55.75 72.3438 54.6233 72.3438C53.4966 72.3438 52.5833 73.2561 52.5833 74.3816C52.5833 75.5071 53.4966 76.4195 54.6233 76.4195Z" fill="#FFCF2D"/>
<path d="M74.0526 74.3816C74.0526 75.5462 73.1782 76.4195 72.0125 76.4195C70.8467 76.4195 69.9724 75.5462 69.9724 74.3816C69.9724 73.2171 70.8467 72.3438 72.0125 72.3438C73.0811 72.3438 74.0526 73.2171 74.0526 74.3816Z" fill="#FFCF2D"/>
<path d="M91.4417 74.3816C91.4417 75.5462 90.5674 76.4195 89.4016 76.4195C88.2359 76.4195 87.3616 75.5462 87.3616 74.3816C87.3616 73.2171 88.2359 72.3438 89.4016 72.3438C90.5674 72.3438 91.4417 73.2171 91.4417 74.3816Z" fill="#FFCF2D"/>
<path d="M108.734 74.3816C108.734 75.5462 107.86 76.4195 106.694 76.4195C105.528 76.4195 104.654 75.5462 104.654 74.3816C104.654 73.2171 105.528 72.3438 106.694 72.3438C107.86 72.3438 108.734 73.2171 108.734 74.3816Z" fill="#FFCF2D"/>
<path d="M124.083 76.4195C125.21 76.4195 126.123 75.5071 126.123 74.3816C126.123 73.2561 125.21 72.3438 124.083 72.3438C122.957 72.3438 122.043 73.2561 122.043 74.3816C122.043 75.5071 122.957 76.4195 124.083 76.4195Z" fill="#FFCF2D"/>
<path d="M143.513 74.3816C143.513 75.5462 142.638 76.4195 141.472 76.4195C140.307 76.4195 139.432 75.5462 139.432 74.3816C139.432 73.2171 140.307 72.3438 141.472 72.3438C142.541 72.3438 143.513 73.2171 143.513 74.3816Z" fill="#FFCF2D"/>
<path d="M4.59261 88.8426C4.59261 90.0071 3.71829 90.8805 2.55253 90.8805C1.38677 90.8805 0.512451 90.0071 0.512451 88.8426C0.512451 87.6781 1.38677 86.8047 2.55253 86.8047C3.71829 86.8047 4.59261 87.6781 4.59261 88.8426Z" fill="#FFCF2D"/>
<path d="M21.9818 88.8426C21.9818 90.0071 21.1075 90.8805 19.9417 90.8805C18.7759 90.8805 17.9016 90.0071 17.9016 88.8426C17.9016 87.6781 18.7759 86.8047 19.9417 86.8047C21.0103 86.8047 21.9818 87.6781 21.9818 88.8426Z" fill="#FFCF2D"/>
<path d="M39.274 88.8426C39.274 90.0071 38.3997 90.8805 37.2339 90.8805C36.0682 90.8805 35.1938 90.0071 35.1938 88.8426C35.1938 87.6781 36.0682 86.8047 37.2339 86.8047C38.3997 86.8047 39.274 87.6781 39.274 88.8426Z" fill="#FFCF2D"/>
<path d="M56.6634 88.8426C56.6634 90.0071 55.7891 90.8805 54.6233 90.8805C53.4576 90.8805 52.5833 90.0071 52.5833 88.8426C52.5833 87.6781 53.4576 86.8047 54.6233 86.8047C55.7891 86.8047 56.6634 87.6781 56.6634 88.8426Z" fill="#FFCF2D"/>
<path d="M74.0526 88.8426C74.0526 90.0071 73.1782 90.8805 72.0125 90.8805C70.8467 90.8805 69.9724 90.0071 69.9724 88.8426C69.9724 87.6781 70.8467 86.8047 72.0125 86.8047C73.0811 86.8047 74.0526 87.6781 74.0526 88.8426Z" fill="#FFCF2D"/>
<path d="M91.4417 88.8426C91.4417 90.0071 90.5674 90.8805 89.4016 90.8805C88.2359 90.8805 87.3616 90.0071 87.3616 88.8426C87.3616 87.6781 88.2359 86.8047 89.4016 86.8047C90.5674 86.8047 91.4417 87.6781 91.4417 88.8426Z" fill="#FFCF2D"/>
<path d="M108.734 88.8426C108.734 90.0071 107.86 90.8805 106.694 90.8805C105.528 90.8805 104.654 90.0071 104.654 88.8426C104.654 87.6781 105.528 86.8047 106.694 86.8047C107.86 86.8047 108.734 87.6781 108.734 88.8426Z" fill="#FFCF2D"/>
<path d="M126.123 88.8426C126.123 90.0071 125.249 90.8805 124.083 90.8805C122.918 90.8805 122.043 90.0071 122.043 88.8426C122.043 87.6781 122.918 86.8047 124.083 86.8047C125.249 86.8047 126.123 87.6781 126.123 88.8426Z" fill="#FFCF2D"/>
<path d="M143.513 88.8426C143.513 90.0071 142.638 90.8805 141.472 90.8805C140.307 90.8805 139.432 90.0071 139.432 88.8426C139.432 87.6781 140.307 86.8047 141.472 86.8047C142.541 86.8047 143.513 87.6781 143.513 88.8426Z" fill="#FFCF2D"/>
<path d="M4.59261 103.204C4.59261 104.368 3.71829 105.242 2.55253 105.242C1.38677 105.242 0.512451 104.368 0.512451 103.204C0.512451 102.039 1.38677 101.166 2.55253 101.166C3.71829 101.166 4.59261 102.136 4.59261 103.204Z" fill="#FFCF2D"/>
<path d="M21.9818 103.204C21.9818 104.368 21.1075 105.242 19.9417 105.242C18.7759 105.242 17.9016 104.368 17.9016 103.204C17.9016 102.039 18.7759 101.166 19.9417 101.166C21.0103 101.166 21.9818 102.136 21.9818 103.204Z" fill="#FFCF2D"/>
<path d="M39.274 103.204C39.274 104.368 38.3997 105.242 37.2339 105.242C36.0682 105.242 35.1938 104.368 35.1938 103.204C35.1938 102.039 36.0682 101.166 37.2339 101.166C38.3997 101.166 39.274 102.136 39.274 103.204Z" fill="#FFCF2D"/>
<path d="M56.6634 103.204C56.6634 104.368 55.7891 105.242 54.6233 105.242C53.4576 105.242 52.5833 104.368 52.5833 103.204C52.5833 102.039 53.4576 101.166 54.6233 101.166C55.7891 101.166 56.6634 102.136 56.6634 103.204Z" fill="#FFCF2D"/>
<path d="M74.0526 103.204C74.0526 104.368 73.1782 105.242 72.0125 105.242C70.8467 105.242 69.9724 104.368 69.9724 103.204C69.9724 102.039 70.8467 101.166 72.0125 101.166C73.0811 101.166 74.0526 102.136 74.0526 103.204Z" fill="#FFCF2D"/>
<path d="M91.4417 103.204C91.4417 104.368 90.5674 105.242 89.4016 105.242C88.2359 105.242 87.3616 104.368 87.3616 103.204C87.3616 102.039 88.2359 101.166 89.4016 101.166C90.5674 101.166 91.4417 102.136 91.4417 103.204Z" fill="#FFCF2D"/>
<path d="M108.734 103.204C108.734 104.368 107.86 105.242 106.694 105.242C105.528 105.242 104.654 104.368 104.654 103.204C104.654 102.039 105.528 101.166 106.694 101.166C107.86 101.166 108.734 102.136 108.734 103.204Z" fill="#FFCF2D"/>
<path d="M126.123 103.204C126.123 104.368 125.249 105.242 124.083 105.242C122.918 105.242 122.043 104.368 122.043 103.204C122.043 102.039 122.918 101.166 124.083 101.166C125.249 101.166 126.123 102.136 126.123 103.204Z" fill="#FFCF2D"/>
<path d="M143.513 103.204C143.513 104.368 142.638 105.242 141.472 105.242C140.307 105.242 139.432 104.368 139.432 103.204C139.432 102.039 140.307 101.166 141.472 101.166C142.541 101.166 143.513 102.136 143.513 103.204Z" fill="#FFCF2D"/>
</svg>
